<svg width="24" height="24" viewBox="0 0 24 24" fill="none" xmlns="http://www.w3.org/2000/svg">
<path d="M9.66536 20.5007C10.1256 20.5007 10.4987 20.1276 10.4987 19.6673C10.4987 19.2071 10.1256 18.834 9.66536 18.834C9.20513 18.834 8.83203 19.2071 8.83203 19.6673C8.83203 20.1276 9.20513 20.5007 9.66536 20.5007Z" stroke="#626D84" stroke-width="2" stroke-linecap="round" stroke-linejoin="round"/>
<path d="M18.8333 20.5007C19.2936 20.5007 19.6667 20.1276 19.6667 19.6673C19.6667 19.2071 19.2936 18.834 18.8333 18.834C18.3731 18.834 18 19.2071 18 19.6673C18 20.1276 18.3731 20.5007 18.8333 20.5007Z" stroke="#626D84" stroke-width="2" stroke-linecap="round" stroke-linejoin="round"/>
<path d="M3 3H6.33333L8.56667 14.1583C8.64287 14.542 8.85159 14.8866 9.15629 15.1319C9.46099 15.3772 9.84225 15.5075 10.2333 15.5H18.3333C18.7244 15.5075 19.1057 15.3772 19.4104 15.1319C19.7151 14.8866 19.9238 14.542 20 14.1583L21.3333 7.16667H7.16667" stroke="#626D84" stroke-width="2" stroke-linecap="round" stroke-linejoin="round"/>
</svg>
