<svg width="56" height="37" viewBox="0 0 56 37" fill="none" xmlns="http://www.w3.org/2000/svg">
<path d="M55.7324 30.0595H54.1265H53.2921C53.2134 29.6531 53.1032 29.3717 52.93 29.2154C52.6624 28.9497 52.2216 28.8246 51.6076 28.8246C50.9936 28.8246 50.5842 28.9184 50.3481 29.1216C50.1749 29.278 50.0804 29.4812 50.0804 29.7469C50.0804 30.1221 50.6 30.4034 51.6076 30.6379C52.7726 30.888 53.607 31.1069 54.1265 31.2788C54.2682 31.3257 54.3784 31.3726 54.4572 31.4195C55.4962 31.9041 56 32.6388 56 33.6235C56 34.8272 55.4962 35.7025 54.4887 36.2653C54.3627 36.3278 54.2368 36.3903 54.1108 36.4529C53.4653 36.7342 52.7096 36.8749 51.8595 36.8749C50.5842 36.8749 49.5609 36.6561 48.7737 36.2028C48.2857 35.9214 47.9078 35.5619 47.6717 35.1242C47.4198 34.6865 47.3096 34.1863 47.3096 33.6079H49.8758C49.8758 34.0456 50.0332 34.3895 50.3481 34.624C50.663 34.8741 51.1982 34.9991 51.9382 34.9991C52.505 34.9991 52.93 34.8741 53.1977 34.6552C53.4181 34.4676 53.5125 34.2644 53.5125 34.03C53.5125 33.6392 53.0088 33.3265 52.0012 33.1077C50.5055 32.7951 49.5609 32.5293 49.1673 32.3417C48.144 31.8728 47.6402 31.1225 47.6402 30.1064C47.6402 29.2936 47.9078 28.5902 48.4431 28.0274C49.1201 27.3084 50.1277 26.9645 51.4659 26.9645C52.5679 26.9645 53.4496 27.1208 54.1265 27.4334C54.1895 27.4647 54.2368 27.4803 54.284 27.5116C54.7563 27.7773 55.1184 28.1212 55.3703 28.5433C55.6065 28.9653 55.7324 29.4655 55.7324 30.0595Z" fill="black"/>
<path d="M54.425 24.1348C54.425 24.0879 54.4092 24.0411 54.3935 24.0098C54.362 23.9629 54.3305 23.9473 54.2833 23.9316C54.2518 23.916 54.2046 23.916 54.1258 23.9004H54.0314H53.7322V24.3693H54.0471C54.0786 24.3693 54.1101 24.3693 54.1258 24.3693C54.236 24.3537 54.3148 24.3381 54.3463 24.3068C54.3935 24.2599 54.425 24.1974 54.425 24.1348ZM54.6296 23.8847C54.6769 23.9473 54.7084 24.0254 54.7084 24.1036C54.7084 24.213 54.6611 24.3224 54.5824 24.4006C54.5037 24.4787 54.3935 24.5413 54.2518 24.5413C54.3148 24.5725 54.3463 24.5882 54.3935 24.6194L54.6296 24.9321L54.8186 25.2447H54.5194L54.3777 24.9946C54.2833 24.8383 54.2046 24.7132 54.1416 24.6663C54.1258 24.6507 54.1258 24.6507 54.1101 24.6351L53.9054 24.5725H53.748V25.2447H53.4961V23.6659H54.0471C54.0786 23.6659 54.1101 23.6815 54.1416 23.6815C54.2833 23.6815 54.3777 23.6972 54.4407 23.7284C54.5037 23.7597 54.5667 23.8066 54.6296 23.8847Z" fill="black"/>
<path d="M55.3389 24.4633C55.3389 24.2444 55.2917 24.0412 55.1815 23.8536C55.0712 23.6661 54.9138 23.5097 54.7249 23.4003C54.536 23.3065 54.3313 23.244 54.1266 23.244C54.1109 23.244 54.1109 23.244 54.1109 23.244C53.9062 23.244 53.7016 23.3065 53.5126 23.4003C53.3237 23.5097 53.1663 23.6661 53.0561 23.8536C52.9459 24.0412 52.8829 24.2444 52.8829 24.4633C52.8829 24.6665 52.9459 24.8697 53.0561 25.0729C53.1505 25.2605 53.308 25.4012 53.4969 25.5106C53.6858 25.62 53.8905 25.6669 54.1109 25.6669C54.1109 25.6669 54.1109 25.6669 54.1266 25.6669C54.3313 25.6669 54.536 25.62 54.7406 25.5106C54.9296 25.4012 55.087 25.2448 55.1815 25.0729C55.2917 24.8697 55.3389 24.6665 55.3389 24.4633ZM55.5908 24.4633C55.5908 24.7134 55.5278 24.9478 55.4019 25.1823C55.2759 25.4168 55.1027 25.5887 54.8666 25.7138C54.6304 25.8545 54.3943 25.9014 54.1424 25.9014C54.1266 25.9014 54.1266 25.9014 54.1266 25.9014C53.8747 25.9014 53.6386 25.8388 53.4024 25.7138C53.1663 25.5887 52.9931 25.4168 52.8671 25.1823C52.7255 24.9478 52.6782 24.7134 52.6782 24.4633C52.6782 24.1975 52.7412 23.9631 52.8671 23.7286C53.0088 23.4941 53.182 23.3222 53.4182 23.1971C53.6543 23.072 53.8905 23.0095 54.1266 23.0095C54.1266 23.0095 54.1266 23.0095 54.1424 23.0095C54.3943 23.0095 54.6304 23.072 54.8666 23.1971C55.1027 23.3222 55.2917 23.4941 55.4176 23.7286C55.5278 23.9474 55.5908 24.1975 55.5908 24.4633Z" fill="black"/>
<path d="M41.2485 12.6303L48.1757 24.0727H41.2485H37.0607L30.4484 13.1462L25.4419 4.87706L30.4484 1.87579L33.5971 0L41.2485 12.6303Z" fill="black"/>
<path d="M46.2701 32.0294V36.7189H43.9716V36.2031C43.2001 36.7033 42.2713 37.0003 41.2794 37.0003C41.2637 37.0003 41.2637 37.0003 41.2479 37.0003C38.5085 36.9847 36.2729 34.765 36.2729 32.0294C36.2729 29.3095 38.5085 27.0742 41.2479 27.0586C41.2637 27.0586 41.2637 27.0586 41.2794 27.0586C42.2713 27.0586 43.2001 27.3556 43.9716 27.8558V27.3087H46.2701V32.0294ZM43.9716 32.5453V31.5136C43.7197 30.2631 42.6019 29.3095 41.2794 29.3095C41.2637 29.3095 41.2637 29.3095 41.2479 29.3095C39.7365 29.3252 38.5243 30.5444 38.5243 32.0294C38.5243 33.5301 39.7523 34.7493 41.2479 34.765C41.2637 34.765 41.2637 34.765 41.2794 34.765C42.6019 34.765 43.7197 33.7958 43.9716 32.5453Z" fill="black"/>
<path d="M35.4698 32.0291V36.7186H33.1713V36.2028C32.3841 36.703 31.471 37 30.4791 37C30.4634 37 30.4634 37 30.4476 37C27.7082 36.9843 25.4727 34.7646 25.4727 32.0291C25.4727 29.3092 27.7082 27.0739 30.4476 27.0583C30.4634 27.0583 30.4634 27.0583 30.4791 27.0583C31.471 27.0583 32.3998 27.3553 33.1713 27.8555V24.0726H35.4698V32.0291ZM33.1713 32.545V31.5133C32.9194 30.2627 31.8016 29.3092 30.4791 29.3092C30.4634 29.3092 30.4634 29.3092 30.4476 29.3092C28.9362 29.3249 27.724 30.5441 27.724 32.0291C27.724 33.5297 28.952 34.749 30.4476 34.7646C30.4634 34.7646 30.4634 34.7646 30.4791 34.7646C31.8016 34.7646 32.9194 33.7955 33.1713 32.545Z" fill="black"/>
<path d="M30.4486 19.5709L33.1565 24.0728H30.4486H22.0573L15.8858 13.8967L15.6182 13.4433L15.8858 13.287L23.7891 8.56628L30.4486 19.5709Z" fill="black"/>
<path d="M24.5604 27.0586H22.0571V36.7189H24.5604V27.0586Z" fill="black"/>
<path d="M24.5604 24.1349H22.0571V26.3233H24.5604V24.1349Z" fill="black"/>
<path d="M20.908 32.0291V36.7186H18.6094V36.2028C17.8222 36.703 16.8933 37 15.9015 37C15.8857 37 15.8857 37 15.87 37C13.1306 36.9843 10.895 34.7646 10.895 32.0291C10.895 29.3092 13.1306 27.0739 15.87 27.0583C15.8857 27.0583 15.8857 27.0583 15.9015 27.0583C16.8933 27.0583 17.8222 27.3553 18.6094 27.8555V24.0726H20.908V32.0291ZM18.6094 32.545V31.5133C18.3575 30.2627 17.2397 29.3092 15.9015 29.3092C15.8857 29.3092 15.8857 29.3092 15.87 29.3092C14.3586 29.3249 13.1464 30.5441 13.1464 32.0291C13.1464 33.5297 14.3744 34.749 15.87 34.7646C15.8857 34.7646 15.8857 34.7646 15.9015 34.7646C17.2554 34.7646 18.3732 33.7955 18.6094 32.545Z" fill="black"/>
<path d="M15.8846 20.3209L18.1517 24.0725H15.8846H7.03671L5.79297 22.0091L13.9639 17.1477L15.8846 20.3209Z" fill="black"/>
<path d="M9.99719 32.0294V36.7189H7.69862V36.2031C6.91144 36.7033 5.98257 37.0003 4.99072 37.0003C4.97498 37.0003 4.97498 37.0003 4.95924 37.0003C2.23559 36.9847 0 34.7493 0 32.0294C0 29.3095 2.23559 27.0742 4.97498 27.0586C4.99072 27.0586 4.99072 27.0586 5.00647 27.0586C5.99831 27.0586 6.92719 27.3556 7.71437 27.8558V27.3087H10.0129V32.0294H9.99719ZM7.69862 32.5453V31.5136C7.44672 30.2631 6.32893 29.3095 4.99072 29.3095C4.97498 29.3095 4.97498 29.3095 4.95924 29.3095C3.46359 29.3252 2.23559 30.5444 2.23559 32.0294C2.23559 33.5301 3.46359 34.7493 4.95924 34.765C4.97498 34.765 4.97498 34.765 4.99072 34.765C6.34467 34.765 7.46247 33.7958 7.69862 32.5453Z" fill="black"/>
</svg>
