<svg width="73" height="28" viewBox="0 0 73 28" fill="none" xmlns="http://www.w3.org/2000/svg">
<g clip-path="url(#clip0_1_10775)">
<path d="M10.3232 13.8886C10.3232 15.7454 8.84848 17.2308 7.00504 17.2308C5.16161 17.2308 3.68686 15.7454 3.68686 13.8886C3.68686 12.0318 5.16161 10.5464 7.00504 10.5464H10.3232V13.8886ZM14.0101 0.14856H10.3232V6.90718C9.06969 6.90718 7.81615 6.90718 7.00504 6.90718C3.1707 6.90718 0.0737305 10.0265 0.0737305 13.8886C0.0737305 17.7507 3.1707 20.87 7.00504 20.87C10.8394 20.87 13.9364 17.7507 13.9364 13.8886C13.9364 11.9576 13.9364 6.90718 13.9364 6.90718L14.0101 0.14856Z" fill="#231F20"/>
<path d="M50.6574 17.2307C52.5008 17.2307 53.9756 15.7453 53.9756 13.8885C53.9756 12.0318 52.5008 10.5464 50.6574 10.5464C48.8139 10.5464 47.3392 12.0318 47.3392 13.8885C47.4129 15.7453 48.8877 17.2307 50.6574 17.2307ZM43.7998 13.8885C43.7998 10.0265 46.8968 6.9071 50.7311 6.9071C54.5655 6.9071 57.6624 10.0265 57.6624 13.8885C57.6624 17.7506 54.5655 20.87 50.7311 20.87C46.8968 20.87 43.7998 17.7506 43.7998 13.8885Z" fill="#231F20"/>
<path d="M69.2392 13.8885C69.2392 12.106 67.7645 10.6206 65.9948 10.6206C64.2251 10.6206 62.7503 12.106 62.7503 13.8885C62.7503 14.7798 62.7503 20.5729 62.7503 20.5729C60.9069 20.5729 59.1372 20.5729 59.1372 20.5729C59.1372 20.5729 59.1372 15.8196 59.1372 13.8885C59.1372 10.0265 62.2342 6.9071 66.0685 6.9071C69.9029 6.9071 72.9998 10.0265 72.9998 13.8885C72.9998 15.8196 72.9998 20.5729 72.9998 20.5729C72.9998 20.5729 71.2301 20.5729 69.3867 20.5729C69.2392 20.5729 69.2392 14.7798 69.2392 13.8885Z" fill="#231F20"/>
<path d="M35.3202 11.5119C34.804 11.1405 34.9515 10.5464 35.8364 10.3236C36.9424 10.0265 38.8596 10.2493 40.4818 10.992L42.1778 8.61534C41.4404 8.02118 39.8182 7.2042 37.4586 7.05566C37.4586 7.05566 33.4768 6.53576 31.8545 9.58086C31.8545 9.58086 30.4535 12.4031 33.2556 14.1856C34.9515 15.2254 37.901 15.671 38.8596 16.1167C39.597 16.5623 39.3758 17.3793 38.2697 17.6021C36.3525 18.0477 33.8455 16.9336 33.0343 16.3395L31.2646 18.7904C32.4444 19.6817 33.9192 20.4986 36.2788 20.87C36.2788 20.87 40.0394 21.5384 42.104 18.9389C42.4727 18.4933 44.1687 15.2997 40.7768 13.4429C39.0071 12.4774 36.2051 12.0318 35.3202 11.5119Z" fill="#231F20"/>
<path d="M18.3606 23.2467C18.5081 23.3209 20.204 24.5093 21.8262 24.5093C25.8081 24.5835 26.0293 20.4244 26.0293 19.4589C25.2919 20.2758 23.7434 20.7957 22.7848 20.7957C18.9505 20.7957 15.9272 17.8249 15.9272 13.9628C15.9272 12.0318 15.9272 7.20422 15.9272 7.20422C15.9272 7.20422 17.6969 7.20422 19.5404 7.20422C19.5404 7.20422 19.5404 13.1459 19.5404 13.9628C19.5404 15.7453 21.0151 17.2307 22.7848 17.2307C24.5545 17.2307 26.0293 15.7453 26.0293 13.9628C26.0293 13.2201 26.0293 7.20422 26.0293 7.20422C27.8727 7.20422 29.6424 7.20422 29.6424 7.20422V13.9628C29.6424 19.9788 29.9373 26.1432 24.1121 27.5544C19.7616 28.5941 16.6646 25.8461 16.4434 25.6976L18.3606 23.2467Z" fill="#231F20"/>
</g>
<defs>
<clipPath id="clip0_1_10775">
<rect width="73" height="28" fill="white"/>
</clipPath>
</defs>
</svg>
