<svg width="92" height="21" viewBox="0 0 92 21" fill="none" xmlns="http://www.w3.org/2000/svg">
<path d="M50.3903 7.79586V13.5109C50.3903 15.1366 49.5954 15.9948 48.1548 15.9948C46.7042 15.9948 45.9094 15.1063 45.9094 13.4402V7.80596H43.9223V13.5109C43.9223 16.3179 45.4523 17.9234 48.1349 17.9234C50.8374 17.9234 52.3873 16.2877 52.3873 13.42V7.78577L50.3903 7.79586ZM57.7127 7.79586L53.3908 17.7719H55.4275L56.2621 15.8434L56.3217 15.702H60.8126L61.6968 17.782H63.7833L59.5011 7.86654L59.4613 7.80596L57.7127 7.79586ZM69.5558 7.79586L67.3302 14.662L65.1643 7.80596H63.0381L66.4559 17.782H68.1052L70.3407 11.2289L72.5762 17.782H74.2354L77.6433 7.80596H75.5767L73.4008 14.662L71.1753 7.79586H69.5558ZM89.0492 7.79586V17.7618H91.0164V7.79586H89.0492ZM32.6753 7.79586V17.7719H34.6624V13.7229H39.1632V17.7719H41.1602V7.79586H39.1632V11.8247H34.6624V7.79586H32.6753ZM79.2528 7.80596V17.7719H86.6647V15.9544H81.22V13.4806H84.8465V11.6631H81.22V9.62347H86.4858V7.80596H79.2528ZM58.5572 10.3202L59.978 13.6624H59.9681L60.0674 13.8946H57.057L57.1563 13.6624L58.5572 10.3202Z" fill="black"/>
<path d="M12.0654 0.285767C11.7068 0.317532 10.7475 0.539891 10.7475 0.539891C8.57794 1.10713 8.06245 3.10382 8.06245 3.10382C7.95486 3.43963 7.91004 3.78451 7.89211 4.1067V4.54688C7.919 5.22757 8.07141 5.73582 8.07141 5.73582C8.79759 8.99405 12.3613 14.3443 13.1278 15.4651C13.1816 15.5196 13.2264 15.5014 13.2264 15.5014C13.3071 15.4787 13.3026 15.3971 13.3026 15.3971C14.486 3.45324 12.0654 0.285767 12.0654 0.285767ZM15.9653 0.285767C15.9653 0.285767 13.5357 3.45324 14.7146 15.4061C14.7236 15.4833 14.7774 15.4969 14.7774 15.4969C14.8581 15.5287 14.8984 15.4515 14.8984 15.4515C15.6829 14.2989 19.2286 8.98044 19.9503 5.73582C19.9503 5.73582 20.3403 4.1657 19.9637 3.10382C19.9637 3.10382 19.4258 1.0799 17.2518 0.544429C17.2563 0.544429 16.6332 0.381063 15.9653 0.285767ZM4.75877 3.87527C4.75877 3.87527 2.68781 5.86288 2.58919 7.96848V8.28613C2.58919 8.30882 2.59368 8.33605 2.59368 8.35874C2.68333 10.0559 3.94742 11.0633 3.94742 11.0633C5.97804 13.0736 10.9044 15.6058 12.0475 16.1821C12.0654 16.1867 12.1237 16.2094 12.1595 16.164C12.1595 16.164 12.1775 16.1504 12.1864 16.1231V16.0687C12.1864 16.0641 12.182 16.0641 12.182 16.0596C9.04862 9.13019 4.75877 3.87073 4.75877 3.87527ZM23.2674 3.87527C23.2674 3.87527 18.991 9.11657 15.8577 16.0369C15.8577 16.0369 15.8218 16.1186 15.8801 16.1685C15.8801 16.1685 15.898 16.1821 15.9204 16.1867H15.9653C15.9742 16.1821 15.9832 16.1821 15.9877 16.1776C17.1621 15.5877 22.0526 13.0691 24.0788 11.0724C24.0788 11.0724 25.3608 10.0287 25.428 8.3542C25.5804 6.02625 23.2674 3.87073 23.2674 3.87527ZM27.118 10.7548C27.118 10.7548 20.1475 14.5439 16.5435 17.0035C16.5435 17.0035 16.4763 17.0489 16.5032 17.126C16.5032 17.126 16.539 17.1895 16.5883 17.1895C17.8793 17.1941 22.7654 17.1986 22.8864 17.1759C22.8864 17.1759 23.5184 17.1487 24.2984 16.8447C24.2984 16.8447 26.0377 16.2865 26.9387 14.2898C26.9387 14.2898 27.3511 13.4548 27.3555 12.2795V12.2296C27.3511 11.7803 27.2883 11.2766 27.118 10.7548ZM0.908221 10.7729C0.271692 12.7605 1.12787 14.3624 1.12787 14.367C2.01991 16.2683 3.71433 16.8492 3.71433 16.8492C4.49878 17.1759 5.28324 17.1986 5.28324 17.1986C5.40427 17.2213 10.1603 17.2032 11.4334 17.1941C11.4872 17.1941 11.5185 17.1396 11.5185 17.1396C11.523 17.1351 11.5275 17.126 11.5275 17.1215V17.0716C11.5185 17.0398 11.4872 17.0126 11.4872 17.0126C7.88762 14.553 0.908221 10.7729 0.908221 10.7729ZM11.2899 17.8022L3.08676 18.0926C3.97432 19.699 5.47599 20.947 7.03593 20.5612C8.11176 20.289 10.5503 18.5645 11.3572 17.9837L11.3527 17.9791C11.4154 17.9202 11.393 17.8748 11.393 17.8748C11.3751 17.8067 11.2899 17.8067 11.2899 17.8022ZM16.7228 17.8067C16.7228 17.8112 16.6511 17.8203 16.6287 17.8748C16.6287 17.8748 16.6108 17.9474 16.6601 17.9882C17.4445 18.56 19.8248 20.2436 20.9723 20.5703C20.9723 20.5703 21.1471 20.6293 21.4385 20.6429H21.6133C22.3799 20.6157 23.7202 20.2163 24.9349 18.1017L16.7228 17.8067Z" fill="#CF0A2C"/>
</svg>
