<svg width="70" height="25" viewBox="0 0 70 25" fill="none" xmlns="http://www.w3.org/2000/svg">
<g clip-path="url(#clip0_1_10817)">
<path d="M69.2596 0.142822L19.2864 22.076C15.1424 23.8824 11.6627 24.7857 8.84755 24.7857C5.65473 24.7857 3.34269 23.6356 1.91142 21.3355C1.00862 19.8604 0.742736 17.9847 1.11376 15.7084C1.48479 13.4322 2.46631 11.009 4.05832 8.43881C5.3905 6.35659 7.57097 3.61849 10.5998 0.224522C9.57175 1.89277 8.81792 3.72443 8.36863 5.64568C7.57152 9.15085 8.28716 11.725 10.5155 13.3681C11.578 14.1351 13.039 14.5187 14.8985 14.5187C16.5953 14.4889 18.2818 14.2407 19.9189 13.78L69.2596 0.142822Z" fill="#111111"/>
</g>
<defs>
<clipPath id="clip0_1_10817">
<rect width="68.3077" height="24.6429" fill="white" transform="translate(0.952148 0.142822)"/>
</clipPath>
</defs>
</svg>
