<svg width="89" height="14" viewBox="0 0 89 14" fill="none" xmlns="http://www.w3.org/2000/svg">
<path fill-rule="evenodd" clip-rule="evenodd" d="M48.8017 6.42533C48.8017 6.42533 47.9508 5.90736 47.4247 5.70694C47.4247 5.70694 45.7962 4.96383 45.4731 4.61027C45.4731 4.61027 44.8384 4.02137 45.21 3.33736C45.21 3.33736 45.3656 2.88978 46.0363 2.88978C46.0363 2.88978 46.9095 2.93706 46.9095 3.64363V4.64036H50.0389L50.0335 3.17241C50.0335 3.17241 50.2741 0.768445 46.3474 0.662593C46.3474 0.662593 43.2589 0.462708 42.3732 2.10045C42.3732 2.10045 42.0255 2.46583 42.0255 3.7382V4.65756C42.0255 4.65756 41.9901 5.71822 42.5402 6.40169C42.5402 6.40169 42.8513 6.84981 43.6175 7.34415C43.6175 7.34415 45.1735 8.16893 46.1073 8.64124C46.1073 8.64124 47.0498 9.17103 46.9259 10.0141C46.9259 10.0141 46.8489 10.8797 45.9386 10.8442C45.9386 10.8442 45.1063 10.8077 45.1063 9.95874V8.96255H41.7717V10.4096C41.7717 10.4096 41.6784 13.1767 45.9632 13.1767C45.9632 13.1767 50.0575 13.2584 50.2485 10.337V9.15867C50.2479 9.15867 50.3931 7.36833 48.8017 6.42533ZM32.7804 1.00701L31.7325 7.47203H31.4875L30.4865 1.06505H25.2593L24.9973 12.7727H28.0923L28.1294 3.95152H28.3728L30.0134 12.7711H33.2694L34.8897 3.95474H35.1053L35.1801 12.7727H38.2914L37.9563 1.00701H32.7804ZM14.3566 1.05591L12.2975 12.7592H15.6293L16.8491 3.68501H17.1231L18.3423 12.7592H21.6736L19.615 1.05591H14.3566ZM84.2695 6.26414V7.99054H85.1241V9.84375C85.1241 10.7497 84.3377 10.7663 84.3377 10.7663C83.3815 10.7663 83.4175 9.90554 83.4175 9.90554V3.49533C83.4175 2.83497 84.2662 2.79951 84.2662 2.79951C85.0805 2.79951 85.0859 3.58722 85.0859 3.58722V4.56191H88.2229C88.3255 2.65927 87.9402 2.19879 87.9402 2.19879C87.162 0.478294 84.2182 0.572324 84.2182 0.572324C79.6944 0.572324 80.1965 3.98967 80.1965 3.98967V10.1876C80.2936 13.3927 84.7514 13.0671 84.8267 13.0644C86.8094 12.8484 87.4081 12.2278 87.4081 12.2278C87.9593 11.8249 88.1012 11.2666 88.1012 11.2666C88.259 10.9415 88.2983 9.90554 88.2983 9.90554V6.26414H84.2695ZM73.8711 8.16893H73.7347L70.5513 1.01024H66.7424V12.7738H69.8423L69.6568 5.61613H69.7954L73.0934 12.7738H76.7866V1.00916H73.6474L73.8711 8.16893ZM59.1755 9.84268C59.1755 9.84268 59.2202 10.8082 58.311 10.8082C58.311 10.8082 57.3548 10.8587 57.3548 9.86686L57.345 1.01722H53.9449V9.79647C53.9449 9.79647 53.5962 13.1192 58.359 13.1192C58.359 13.1192 62.498 13.1676 62.498 9.94907V1.01776H59.1755V9.84268ZM7.87464 6.42533C7.87464 6.42533 7.02489 5.90736 6.49824 5.70748C6.49824 5.70748 4.87078 4.9649 4.54769 4.61081C4.54769 4.61081 3.91298 4.02083 4.28518 3.33844C4.28518 3.33844 4.44018 2.89085 5.11037 2.89085C5.11037 2.89085 5.98413 2.9376 5.98413 3.64417V4.6409H9.11461L9.1086 3.17241C9.1086 3.17241 9.34764 0.768445 5.42254 0.66313C5.42254 0.66313 5.12674 0.644323 4.69287 0.665815C4.69287 0.665815 2.31499 0.791548 1.4647 2.07574C1.45979 2.08541 1.45269 2.0924 1.44778 2.101C1.44778 2.101 1.10068 2.46583 1.10068 3.73874V4.65809C1.10068 4.65809 1.06466 5.71876 1.61533 6.40223C1.61533 6.40223 1.92641 6.85035 2.69266 7.34469C2.69266 7.34469 4.24807 8.16947 5.18187 8.64177C5.18187 8.64177 6.12548 9.17049 6.0005 10.0146C6.0005 10.0146 5.92355 10.8802 5.01377 10.8448C5.01377 10.8448 4.18149 10.8082 4.18149 9.95928V8.96255H0.846354V10.4106C0.846354 10.4106 0.753029 13.1778 5.03779 13.1778C5.03779 13.1778 9.13098 13.2595 9.32363 10.3381V9.16082C9.32363 9.15975 9.46662 7.36833 7.87464 6.42533Z" fill="black"/>
</svg>
