<svg width="75" height="14" viewBox="0 0 75 14" fill="none" xmlns="http://www.w3.org/2000/svg">
<path d="M26.7195 13.8771C24.0027 13.8771 21.4807 13.0284 19.7973 11.4545C18.5255 10.2654 17.9143 8.65016 17.9143 6.98774C17.9143 5.34556 18.5518 3.71923 19.7972 2.53638C21.3606 1.05217 24.1208 0.122681 26.7195 0.122681C29.5954 0.122681 31.8972 0.877255 33.6568 2.54046C34.9088 3.72393 35.5141 5.34305 35.5141 6.9879C35.5141 8.58223 34.8717 10.2801 33.6568 11.4545C32.0183 13.0386 29.4433 13.8771 26.7195 13.8771V12.063C28.1616 12.063 29.4992 11.5444 30.4334 10.5761C31.3611 9.61448 31.7933 8.43242 31.7933 6.98774C31.7933 5.60378 31.327 4.30986 30.4334 3.39214C29.5117 2.44649 28.1421 1.91436 26.7195 1.91436C25.2926 1.91436 23.9221 2.441 22.9997 3.39214C22.1109 4.30955 21.6434 5.60723 21.6434 6.98774C21.6434 8.36402 22.1163 9.66091 22.9997 10.5763C23.9229 11.5329 25.2885 12.0632 26.7195 12.0632V13.8773V13.8771ZM6.86218 0.129269C5.40888 0.129269 3.75784 0.412431 2.35499 1.06504C1.06027 1.66681 0.000488588 2.64007 0.000488588 4.25355C-0.000113817 5.70669 0.886475 6.55774 0.862379 6.53421C1.23948 6.89581 1.84656 7.51155 3.43374 7.87315C4.14308 8.03473 5.65963 8.28291 7.16986 8.44732C8.66894 8.61204 10.1442 8.7686 10.7451 8.92705C11.2225 9.05365 12.0245 9.22605 12.0245 10.1632C12.0245 11.0966 11.1796 11.3815 11.0328 11.4433C10.8861 11.5037 9.87255 11.9882 8.05057 11.9882C6.7054 11.9882 5.08825 11.5668 4.4988 11.3472C3.81928 11.0952 3.10649 10.762 2.44158 9.91599C2.27622 9.70625 2.01538 9.12942 2.01538 8.55823H0.36645V13.3712H2.19927V12.7209C2.19927 12.6469 2.28812 12.3424 2.5958 12.4872C2.97863 12.6684 4.10241 13.1345 5.2774 13.39C6.2408 13.5999 6.86203 13.7504 8.05976 13.7504C10.014 13.7504 11.0638 13.4187 11.7895 13.2029C12.4733 12.9989 13.3182 12.6328 14.0044 12.0627C14.3761 11.7544 15.1912 10.9642 15.1912 9.52992C15.1912 8.15318 14.4818 7.29867 14.2323 7.03873C13.8924 6.6845 13.4772 6.40997 13.0445 6.19834C12.6676 6.01354 12.0727 5.79156 11.5859 5.66747C10.6412 5.42588 8.50509 5.12782 7.48356 5.01644C6.41233 4.89988 4.55407 4.73955 3.8119 4.50031C3.58691 4.42768 3.12817 4.20005 3.12817 3.64534C3.12817 3.25079 3.33796 2.91633 3.75257 2.64603C4.41069 2.21651 5.74005 1.9495 7.12573 1.9495C8.76397 1.94323 10.1513 2.33338 11.0338 2.7444C11.334 2.88402 11.6852 3.0845 11.9641 3.3217C12.2789 3.58902 12.7207 4.14452 12.8805 4.91933H14.3609V0.729792H12.7079V1.21674C12.7079 1.37393 12.552 1.57818 12.2573 1.40938C11.5176 1.00511 9.42601 0.132878 6.86188 0.129269H6.86218ZM43.0869 0.89059L51.1504 8.47085L51.0675 3.3672C51.0594 2.69796 50.941 2.41856 50.2462 2.41856H48.7301V0.891845H55.6246V2.41856H54.1457C53.437 2.41856 53.3922 2.65466 53.3836 3.3672L53.5086 13.1191H51.1475L41.8599 4.48462L41.8619 10.6125C41.87 11.2786 41.9 11.5924 42.5589 11.5924H44.2147V13.1185H37.4437V11.5925H39.0265C39.6178 11.5925 39.5943 11.0053 39.5943 10.5779V3.42524C39.5943 2.96355 39.5321 2.41966 38.6038 2.41966H37.3195V0.89059H43.0869ZM63.503 11.5896C63.5677 11.5896 63.8554 11.5809 63.9111 11.5632C63.9812 11.5411 64.0459 11.5035 64.1006 11.4528C64.1554 11.4022 64.199 11.3397 64.2283 11.2698C64.2494 11.2181 64.2599 10.989 64.2599 10.9393L64.2611 8.52654C64.2611 8.4685 64.257 8.4434 64.1625 8.31413C64.0586 8.17294 59.9389 3.30978 59.7503 3.09564C59.5161 2.82974 59.105 2.41872 58.4803 2.41872H57.0476V0.891374H65.1329V2.41684H64.1582C63.9328 2.41684 63.783 2.6396 63.9756 2.88715C63.9756 2.88715 66.6959 6.27678 66.7216 6.31223C66.7469 6.34831 66.7686 6.35694 66.8033 6.324C66.8373 6.29027 69.5918 2.91822 69.6135 2.89155C69.7445 2.72808 69.6556 2.41856 69.3733 2.41856H68.3734V0.891374H74.9999V2.41856H73.5195C72.9824 2.41856 72.7639 2.5221 72.3598 2.99791C72.1751 3.21565 68.0114 8.1662 67.8981 8.30033C67.8388 8.37045 67.8439 8.46818 67.8439 8.52623V10.9387C67.8439 10.9876 67.8545 11.217 67.8755 11.2684C67.9049 11.3384 67.9485 11.401 68.0033 11.4516C68.0582 11.5023 68.1231 11.5399 68.1933 11.5618C68.249 11.5797 68.5328 11.5885 68.5974 11.5885H70.1117V13.1155H62.0681V11.5883L63.5033 11.5896H63.503Z" fill="black"/>
</svg>
