<svg width="88" height="20" viewBox="0 0 88 20" fill="none" xmlns="http://www.w3.org/2000/svg">
<path d="M25.0171 15.9277L30.0734 9.18495L25.6209 2.93193H27.6828L30.0676 6.25586C30.5645 6.94495 30.9084 7.47268 31.1072 7.83905C31.4014 7.38535 31.7492 6.90129 32.1486 6.39064L34.7608 2.93193H36.6584L32.1142 9.10902L37.0061 15.9277H34.8812L31.5811 11.2921C31.3919 11.0282 31.2123 10.7662 31.0441 10.5062C30.7517 10.9409 30.5454 11.2465 30.4173 11.4193L27.1 15.9277H25.0171ZM38.8253 15.9277V2.93193H40.5604V15.9296H38.8253V15.9277ZM42.1752 15.9277L47.1932 2.93003H49.0965L54.4222 15.9277H52.454L50.9405 11.9887H45.4314L44.0115 15.9277H42.1752ZM45.9397 10.5916H50.3978L49.0334 6.98861C48.6226 5.89329 48.3111 4.98969 48.0952 4.27593C47.9155 5.12257 47.6748 5.95403 47.3728 6.7779L45.9397 10.5916ZM55.2687 9.60258C55.2687 7.448 55.8535 5.7604 57.0191 4.54169C58.1848 3.32298 59.6906 2.71362 61.5346 2.71362C62.7442 2.71362 63.8315 3.00217 64.8023 3.57356C65.7711 4.14495 66.5106 4.94413 67.0189 5.96922C67.5272 6.99241 67.7833 8.15417 67.7833 9.45261C67.7833 10.7681 67.5158 11.9489 66.9788 12.9854C66.4418 14.0256 65.6851 14.8134 64.7048 15.345C63.7207 15.8803 62.662 16.146 61.525 16.146C60.2906 16.146 59.1918 15.8499 58.2211 15.2595C57.2522 14.6692 56.5146 13.8643 56.0159 12.843C55.5171 11.8236 55.2687 10.7435 55.2687 9.60258ZM57.0592 9.63295C57.0592 11.1972 57.4835 12.4292 58.3281 13.3271C59.1746 14.225 60.2371 14.6767 61.5174 14.6767C62.8206 14.6767 63.8888 14.2231 64.7335 13.3157C65.5743 12.4083 65.9947 11.1193 65.9947 9.44881C65.9947 8.39335 65.815 7.47078 65.4558 6.68298C65.0965 5.89708 64.5691 5.28583 63.8793 4.85301C63.1856 4.4202 62.4079 4.20379 61.5461 4.20379C60.3212 4.20379 59.2683 4.62142 58.3854 5.45668C57.5007 6.29003 57.0592 7.68149 57.0592 9.63295ZM69.9751 15.9277V2.93193H72.5701L75.6639 12.1311C75.9505 12.9873 76.1569 13.6289 76.2887 14.056C76.4378 13.5833 76.6728 12.8885 76.9881 11.9717L80.1373 2.93193H82.4553V15.9296H80.7928V5.05613L76.9748 15.9296H75.4155L71.6376 4.85681V15.9296H69.9751V15.9277ZM85.5242 15.9277V2.93193H87.2593V15.9296H85.5242V15.9277Z" fill="black"/>
<path d="M0.993088 0.642456H19.7334C19.9551 0.642456 20.1347 0.8171 20.1347 1.03541V19.2516C20.1347 19.468 19.9551 19.6445 19.7334 19.6445H0.993088C0.771422 19.6445 0.591797 19.468 0.591797 19.2516V1.03541C0.591797 0.8171 0.771422 0.642456 0.993088 0.642456Z" fill="#EF7E1F"/>
<path d="M15.589 5.27063H17.9987V15.0033H15.589V5.27063ZM7.00524 9.02548H9.4684V14.9235H7.00524V9.02548ZM2.75537 5.27063L5.16503 5.29721H11.1634C12.6883 5.29721 13.7202 6.62602 13.7202 8.01558C13.7221 10.2347 13.7469 14.9767 13.7469 14.9767L11.408 14.9862L11.364 8.75023C11.3583 7.8789 10.7602 7.31511 9.8888 7.30182C8.7671 7.28663 5.92175 7.3189 5.16312 7.3284V15.0014H2.75537V5.27063Z" fill="white"/>
</svg>
