<svg width="21" height="20" viewBox="0 0 21 20" fill="none" xmlns="http://www.w3.org/2000/svg">
<path d="M7.66536 18.5007C8.1256 18.5007 8.4987 18.1276 8.4987 17.6673C8.4987 17.2071 8.1256 16.834 7.66536 16.834C7.20513 16.834 6.83203 17.2071 6.83203 17.6673C6.83203 18.1276 7.20513 18.5007 7.66536 18.5007Z" stroke="#626D84" stroke-width="2" stroke-linecap="round" stroke-linejoin="round"/>
<path d="M16.8333 18.5007C17.2936 18.5007 17.6667 18.1276 17.6667 17.6673C17.6667 17.2071 17.2936 16.834 16.8333 16.834C16.3731 16.834 16 17.2071 16 17.6673C16 18.1276 16.3731 18.5007 16.8333 18.5007Z" stroke="#626D84" stroke-width="2" stroke-linecap="round" stroke-linejoin="round"/>
<path d="M1 1H4.33333L6.56667 12.1583C6.64287 12.542 6.85159 12.8866 7.15629 13.1319C7.46099 13.3772 7.84225 13.5075 8.23333 13.5H16.3333C16.7244 13.5075 17.1057 13.3772 17.4104 13.1319C17.7151 12.8866 17.9238 12.542 18 12.1583L19.3333 5.16667H5.16667" stroke="#626D84" stroke-width="2" stroke-linecap="round" stroke-linejoin="round"/>
</svg>
