<svg width="24" height="24" viewBox="0 0 24 24" fill="none" xmlns="http://www.w3.org/2000/svg">
<path fill-rule="evenodd" clip-rule="evenodd" d="M9.36335 18.5C8.99709 17.8857 8.71809 17.2133 8.54344 16.5H3.75C3.19772 16.5 2.75 16.9477 2.75 17.5C2.75 18.0523 3.19772 18.5 3.75 18.5H9.36335Z" fill="#626D84"/>
<path fill-rule="evenodd" clip-rule="evenodd" d="M8.54344 13C8.71809 12.2867 8.99709 11.6143 9.36335 11H3.75C3.19772 11 2.75 11.4477 2.75 12C2.75 12.5523 3.19772 13 3.75 13H8.54344Z" fill="#626D84"/>
<path d="M16.4812 19.129C18.956 19.129 20.9623 17.1227 20.9623 14.6478C20.9623 12.173 18.956 10.1667 16.4812 10.1667C14.0063 10.1667 12 12.173 12 14.6478C12 17.1227 14.0063 19.129 16.4812 19.129Z" stroke="#626D84" stroke-width="2" stroke-linecap="round" stroke-linejoin="round"/>
<path d="M22.0836 20.2484L19.647 17.8125" stroke="#626D84" stroke-width="2" stroke-linecap="round" stroke-linejoin="round"/>
<path d="M3.75 6.5H20.25" stroke="#626D84" stroke-width="2" stroke-linecap="round" stroke-linejoin="round"/>
</svg>
