<svg width="24" height="24" viewBox="0 0 24 24" fill="none" xmlns="http://www.w3.org/2000/svg">
<path d="M19.7918 10.3333C19.7918 16.1666 12.0002 21.1666 12.0002 21.1666C12.0002 21.1666 4.2085 16.1666 4.2085 10.3333C4.2085 8.34413 5.1249 6.43647 6.50016 5.02995C7.87543 3.62343 10.0552 2.83325 12.0002 2.83325C13.9451 2.83325 16.1249 3.62343 17.5002 5.02995C18.8754 6.43647 19.7918 7.87492 19.7918 10.3333Z" stroke="#9BA4B5" stroke-width="2" stroke-linecap="round" stroke-linejoin="round"/>
<path d="M12 12.9167C13.5188 12.9167 14.75 11.6855 14.75 10.1667C14.75 8.64797 13.5188 7.41675 12 7.41675C10.4812 7.41675 9.25 8.64797 9.25 10.1667C9.25 11.6855 10.4812 12.9167 12 12.9167Z" stroke="#9BA4B5" stroke-width="2" stroke-linecap="round" stroke-linejoin="round"/>
</svg>
