<svg width="126" height="30" viewBox="0 0 126 30" fill="none" xmlns="http://www.w3.org/2000/svg">
<path d="M14.6772 29.7196C6.54674 29.7196 0.00195312 23.1327 0.00195312 15.0001C0.00195312 6.86748 6.59242 0.280518 14.7294 0.280518H15.2775H15.3362H15.3558C16.0801 0.313126 16.7979 0.39791 17.5026 0.534867C18.3965 0.678345 18.9968 1.51965 18.8533 2.41313C18.7097 3.30661 17.868 3.90661 16.974 3.76313C16.9479 3.75661 16.9153 3.75008 16.8892 3.74356C10.6772 2.58269 4.69358 6.67834 3.53209 12.887C2.37061 19.0957 6.46844 25.0762 12.6804 26.237C13.3525 26.361 14.0377 26.4262 14.7163 26.4327C20.726 26.4066 25.6917 21.737 26.0767 15.7436C26.1289 14.8827 26.8402 14.2175 27.695 14.211C27.7276 14.211 27.7667 14.211 27.7994 14.211C28.6998 14.2697 29.3785 15.0457 29.3197 15.9457C29.3197 15.9457 29.3197 15.9457 29.3197 15.9523C29.0326 20.6088 26.5465 24.8544 22.6249 27.3914C21.5613 28.0892 19.2057 29.537 14.7228 29.7196" fill="#102C43"/>
<path d="M21.646 16.2979C22.756 16.2979 23.6558 15.3986 23.6558 14.2892C23.6558 13.1798 22.756 12.2805 21.646 12.2805C20.536 12.2805 19.6362 13.1798 19.6362 14.2892C19.6362 15.3986 20.536 16.2979 21.646 16.2979Z" fill="#27B1E7"/>
<path d="M33.0197 7.22607H36.0539V20.0348C36.0539 21.3848 36.5107 21.7174 37.3068 21.7174C37.4242 21.7174 37.5939 21.7174 37.7635 21.6913V24.3652C37.5482 24.3913 37.2089 24.4369 36.7978 24.4369C35.1143 24.4369 33.0132 24.0065 33.0132 20.4848V7.22607H33.0197Z" fill="#102C43"/>
<path d="M46.6834 11.7522C50.4419 11.7522 53.4565 14.4261 53.4565 18.1826C53.4565 21.9652 50.4419 24.6131 46.7095 24.6131C42.9771 24.6131 39.9624 21.9652 39.9624 18.1826C39.9624 14.4261 42.9705 11.7522 46.6834 11.7522ZM46.703 22.0109C48.6997 22.0109 50.3636 20.4718 50.3636 18.1826C50.3636 15.9196 48.6997 14.3544 46.703 14.3544C44.7062 14.3544 43.0619 15.9196 43.0619 18.1826C43.0684 20.4652 44.7062 22.0109 46.703 22.0109Z" fill="#102C43"/>
<path d="M56.7062 7.22607H59.7666V12.5478C59.7666 13.1478 59.6948 13.5848 59.6948 13.5848H59.7405C60.4648 12.4761 61.9329 11.7522 63.4533 11.7522C66.7812 11.7522 68.8953 14.3739 68.8953 18.1826C68.8953 22.0826 66.5071 24.613 63.2575 24.613C61.8089 24.613 60.3408 23.9413 59.5447 22.7087H59.499C59.499 22.7087 59.5447 23.0478 59.5447 23.5304V24.3261H56.6997V7.22607H56.7062ZM62.729 22.0304C64.4125 22.0304 65.8154 20.6609 65.8154 18.2282C65.8154 15.8935 64.5626 14.3739 62.7812 14.3739C61.1695 14.3739 59.6752 15.5282 59.6752 18.2478C59.6687 20.1522 60.6801 22.0304 62.729 22.0304Z" fill="#102C43"/>
<path d="M77.7369 11.7522C81.254 11.7522 83.1789 14.3283 83.1789 17.5826C83.1789 17.9674 83.1332 18.3783 83.081 18.7631H74.6243C74.8201 20.9087 76.4579 22.0109 78.3111 22.0109C79.5639 22.0109 80.8429 21.4565 81.8282 20.6609L83.0353 22.8522C81.7825 23.9609 79.8576 24.6131 78.0957 24.6131C74.024 24.6131 71.4727 21.6783 71.4727 18.1826C71.4727 14.4 74.0501 11.7522 77.7369 11.7522ZM80.1251 16.6631C80.099 15.0261 79.0419 14.0609 77.6651 14.0609C76.099 14.0609 74.9897 15.0978 74.7026 16.6631H80.1251Z" fill="#102C43"/>
<path d="M86.4614 12.0392H89.3978V14.2044C89.3978 14.6609 89.3521 15.0457 89.3521 15.0457H89.3978C89.9524 13.3109 91.4467 11.8696 93.2999 11.8696C93.4956 11.8696 93.6848 11.8957 93.8806 11.9153V14.9283C93.7631 14.9022 93.3977 14.8827 93.1367 14.8827C90.631 14.8827 89.5218 17.0479 89.5218 19.3631V24.3262H86.4614V12.0392V12.0392Z" fill="#102C43"/>
<path d="M102.383 11.7522C104.047 11.7522 105.926 12.3065 107.107 13.5848L105.737 15.6783C104.967 14.9087 103.76 14.3544 102.559 14.3544C100.295 14.3544 98.8267 16.0631 98.8267 18.1565C98.8267 20.2305 100.295 22.0109 102.657 22.0109C103.956 22.0109 105.358 21.3392 106.272 20.4457L107.453 22.6109C106.298 23.837 104.367 24.6065 102.396 24.6065C98.3243 24.6065 95.7207 21.7435 95.7207 18.1761C95.7142 14.687 98.3112 11.7522 102.383 11.7522Z" fill="#102C43"/>
<path d="M115.662 11.7522C119.179 11.7522 121.104 14.3283 121.104 17.5826C121.104 17.9674 121.058 18.3783 121.006 18.7631H112.549C112.745 20.9087 114.383 22.0109 116.236 22.0109C117.489 22.0109 118.768 21.4565 119.753 20.6609L120.96 22.8522C119.707 23.9609 117.782 24.6131 116.021 24.6131C111.949 24.6131 109.397 21.6783 109.397 18.1826C109.397 14.4 111.975 11.7522 115.662 11.7522ZM118.043 16.6631C118.017 15.0261 116.96 14.0609 115.583 14.0609C114.017 14.0609 112.908 15.0978 112.621 16.6631H118.043Z" fill="#102C43"/>
</svg>
