<svg width="24" height="24" viewBox="0 0 24 24" fill="none" xmlns="http://www.w3.org/2000/svg">
<path d="M11.4744 23C6.77937 23 3 19.1963 3 14.5C3 9.80372 6.80575 6 11.5045 6H11.821H11.855H11.8663C12.2845 6.01883 12.699 6.06779 13.106 6.14688C13.6222 6.22973 13.9688 6.71555 13.8859 7.2315C13.803 7.74745 13.317 8.09393 12.8007 8.01108C12.7857 8.00731 12.7668 8.00354 12.7518 7.99978C9.16456 7.32942 5.70924 9.69451 5.03852 13.2798C4.36781 16.8651 6.73415 20.3186 10.3214 20.9889C10.7095 21.0605 11.1051 21.0981 11.497 21.1019C14.9674 21.0868 17.8349 18.3903 18.0572 14.9293C18.0873 14.4322 18.4981 14.0481 18.9917 14.0443C19.0105 14.0443 19.0331 14.0443 19.052 14.0443C19.572 14.0782 19.9638 14.5264 19.9299 15.0461C19.9299 15.0461 19.9299 15.0461 19.9299 15.0498C19.7641 17.7388 18.3285 20.1905 16.0639 21.6555C15.4497 22.0585 14.0894 22.8946 11.5008 23" fill="#102C43"/>
<path d="M15.4985 15.2495C16.1394 15.2495 16.659 14.7301 16.659 14.0895C16.659 13.4489 16.1394 12.9296 15.4985 12.9296C14.8575 12.9296 14.3379 13.4489 14.3379 14.0895C14.3379 14.7301 14.8575 15.2495 15.4985 15.2495Z" fill="#27B1E7"/>
</svg>
