<svg width="24" height="24" viewBox="0 0 24 24" fill="none" xmlns="http://www.w3.org/2000/svg">
<path d="M11.9729 21C7.00169 21 3 16.9725 3 12C3 7.02747 7.02961 3 12.0048 3H12.3399H12.3758H12.3878C12.8307 3.01994 13.2695 3.07178 13.7004 3.15552C14.247 3.24324 14.6141 3.75764 14.5263 4.30394C14.4385 4.85024 13.9238 5.2171 13.3773 5.12938C13.3613 5.12539 13.3413 5.1214 13.3254 5.11741C9.52718 4.40762 5.86861 6.91183 5.15844 10.708C4.44827 14.5042 6.95381 18.1608 10.752 18.8706C11.163 18.9464 11.5819 18.9863 11.9968 18.9903C15.6713 18.9743 18.7075 16.1192 18.9429 12.4546C18.9748 11.9282 19.4097 11.5215 19.9324 11.5175C19.9523 11.5175 19.9762 11.5175 19.9962 11.5175C20.5468 11.5534 20.9617 12.0279 20.9258 12.5782C20.9258 12.5782 20.9258 12.5782 20.9258 12.5822C20.7503 15.4293 19.2302 18.0253 16.8324 19.5764C16.182 20.0031 14.7417 20.8883 12.0008 21" fill="#102C43"/>
<path d="M16.2337 12.7935C16.9124 12.7935 17.4625 12.2436 17.4625 11.5653C17.4625 10.887 16.9124 10.3372 16.2337 10.3372C15.555 10.3372 15.0049 10.887 15.0049 11.5653C15.0049 12.2436 15.555 12.7935 16.2337 12.7935Z" fill="#27B1E7"/>
</svg>
