<svg width="144" height="24" viewBox="0 0 144 24" fill="none" xmlns="http://www.w3.org/2000/svg">
<path d="M4.30531 7.72089L9.96291 3.37099L15.6205 7.72089L19.9258 7.72089L9.96291 -5.482e-09L-4.27737e-09 7.72089L4.30531 7.72089Z" fill="url(#paint0_linear_1_21326)"/>
<path d="M17.3198 4.05089L17.3198 -1.79276e-09L14.0615 0L14.0615 1.52709L17.3198 4.05089Z" fill="url(#paint1_linear_1_21326)"/>
<path d="M4.61708 9.2619L2.12861 9.2552C1.06382 9.2552 0.710449 9.96713 0.710449 10.4813C0.710451 11.391 1.41875 11.9249 2.79629 11.8498C3.30029 14.4649 3.80595 16.7803 4.30759 19.4002L15.6654 19.4002C16.3397 15.9165 16.9592 12.7658 17.6289 9.2797C15.3634 9.25512 13.1493 9.25512 11.427 9.25513L11.3568 9.25513C10.292 9.25513 9.93922 10.0479 9.9371 10.501C9.93497 10.9542 10.292 11.8605 11.3568 11.8605L14.8178 11.8605C14.4842 13.5999 14.1482 15.3382 13.8098 17.0753L6.11131 17.0753C5.61204 14.4768 5.11399 11.8723 4.61708 9.2619Z" fill="url(#paint2_linear_1_21326)"/>
<path d="M5.72881 22.7818C6.5129 22.7818 7.14853 22.1443 7.14853 21.3579C7.14853 20.5716 6.5129 19.9341 5.72881 19.9341C4.94472 19.9341 4.30908 20.5716 4.30908 21.3579C4.30908 22.1443 4.94472 22.7818 5.72881 22.7818Z" fill="url(#paint3_linear_1_21326)"/>
<path d="M14.1971 22.7818C14.9812 22.7818 15.6168 22.1443 15.6168 21.3579C15.6168 20.5716 14.9812 19.9341 14.1971 19.9341C13.413 19.9341 12.7773 20.5716 12.7773 21.3579C12.7773 22.1443 13.413 22.7818 14.1971 22.7818Z" fill="url(#paint4_linear_1_21326)"/>
<path d="M25.4985 19.3786L25.4985 3.75415L28.3324 3.75415L28.3324 10.378L35.4721 10.378L35.4721 3.75415L38.2841 3.75415L38.2841 19.3786L35.4721 19.3786L35.4721 12.8207L28.3324 12.8207L28.3324 19.3786L25.4985 19.3786ZM39.5598 16.2757C39.5598 15.4835 39.7721 14.8086 40.1969 14.2511C40.6362 13.6936 41.2074 13.2902 41.9104 13.0408C42.628 12.7767 43.3164 12.5933 43.9754 12.4906C44.6491 12.3879 45.3521 12.3366 46.0844 12.3366L46.5677 12.3366L46.5677 12.1825C46.5677 10.8622 45.8647 10.202 44.4587 10.202C43.4335 10.202 42.3937 10.5614 41.3392 11.2803L40.3067 9.27772C40.79 8.89627 41.4417 8.57352 42.2619 8.30944C43.082 8.0307 43.8949 7.89132 44.7004 7.89132C46.1649 7.89132 47.3073 8.28744 48.1274 9.07966C48.9476 9.85721 49.3576 10.9502 49.3576 12.3586L49.3576 19.3786L46.7654 19.3786L46.7654 18.4323L46.8313 17.6181L46.7874 17.6181C46.4359 18.2196 45.9452 18.7111 45.3155 19.0925C44.6857 19.4593 43.9974 19.6426 43.2505 19.6426C42.2106 19.6426 41.3319 19.3346 40.6143 18.7184C39.9113 18.0875 39.5598 17.2733 39.5598 16.2757ZM42.3278 16.0336C42.3278 16.4297 42.4742 16.7745 42.7672 17.0679C43.0747 17.3613 43.4921 17.508 44.0193 17.508C44.7663 17.508 45.3814 17.2 45.8647 16.5838C46.348 15.9676 46.5896 15.2928 46.5896 14.5592L46.5896 14.2511L46.1063 14.2511C43.5873 14.2511 42.3278 14.8453 42.3278 16.0336ZM51.1176 15.8796L51.1176 3.75415L53.8856 3.75415L53.8856 15.4615C53.8856 16.0483 53.9734 16.4517 54.1492 16.6718C54.3396 16.8919 54.6325 17.0019 55.0279 17.0019C55.2037 17.0019 55.3428 16.9946 55.4453 16.9799L55.4453 19.4226C55.0499 19.4666 54.757 19.4886 54.5666 19.4886C54.1126 19.4886 53.7098 19.4519 53.3583 19.3786C53.0068 19.2906 52.648 19.1365 52.2819 18.9164C51.9157 18.6817 51.6301 18.3076 51.4251 17.7941C51.2201 17.2806 51.1176 16.6425 51.1176 15.8796ZM56.4133 21.1831C56.8233 21.4912 57.2334 21.6452 57.6435 21.6452C58.5369 21.6452 59.1886 21.1611 59.5987 20.1928L60.0161 19.2025L55.2929 8.1554L58.4343 8.1554L60.785 14.6252L61.2024 16.1437L61.2463 16.1437C61.3781 15.5568 61.5026 15.0654 61.6198 14.6692L63.8166 8.1554L66.8482 8.1554L61.8614 21.0731C61.4953 22.056 60.9461 22.7895 60.2138 23.2737C59.4961 23.7578 58.698 23.9999 57.8192 23.9999C57.4238 23.9999 57.0284 23.9412 56.6329 23.8238C56.2522 23.7065 55.9666 23.5891 55.7762 23.4717L55.4906 23.2737L56.4133 21.1831ZM67.5715 19.3786L67.5715 3.75415L70.3614 3.75415L70.3614 12.1165L71.7454 12.1165L74.4475 8.1554L77.5451 8.1554L74.0082 13.1728L74.0082 13.2168L77.9844 19.3786L74.7771 19.3786L71.8113 14.4712L70.3614 14.4712L70.3614 19.3786L67.5715 19.3786Z" fill="url(#paint5_linear_1_21326)"/>
<path d="M80.7476 19.3497L82.0175 3.75415L85.0172 3.75415L88.0827 11.4641L88.849 13.7485L88.8928 13.7485C89.1702 12.8406 89.4256 12.0791 89.6592 11.4641L92.7246 3.75415L95.7243 3.75415L96.9943 19.3497L94.1697 19.3497L93.5347 10.6294C93.5055 10.3219 93.4909 9.97041 93.4909 9.57503C93.4909 9.16501 93.4982 8.83553 93.5128 8.58658L93.5128 8.21317L93.469 8.21317C93.1333 9.22358 92.8487 10.029 92.6151 10.6294L90.0971 16.6699L87.6448 16.6699L85.1267 10.6294L84.2728 8.1912L84.229 8.1912C84.2728 9.1284 84.2655 9.94113 84.2071 10.6294L83.5721 19.3497L80.7476 19.3497ZM97.834 16.2526C97.834 15.4618 98.0457 14.7882 98.469 14.2317C98.9069 13.6753 99.4762 13.2726 100.177 13.0236C100.892 12.76 101.578 12.577 102.235 12.4745C102.907 12.372 103.607 12.3207 104.337 12.3207L104.819 12.3207L104.819 12.167C104.819 10.849 104.118 10.1901 102.717 10.1901C101.695 10.1901 100.659 10.5488 99.6076 11.2664L98.5785 9.26752C99.0602 8.88678 99.7098 8.56462 100.527 8.30103C101.345 8.0228 102.155 7.88368 102.958 7.88368C104.417 7.88368 105.556 8.27906 106.373 9.06983C107.191 9.84594 107.6 10.9369 107.6 12.3427L107.6 19.3497L105.016 19.3497L105.016 18.4052L105.082 17.5925L105.038 17.5925C104.687 18.1929 104.198 18.6834 103.571 19.0642C102.943 19.4303 102.257 19.6133 101.513 19.6133C100.476 19.6133 99.6003 19.3058 98.885 18.6908C98.1844 18.0611 97.834 17.2483 97.834 16.2526ZM100.593 16.011C100.593 16.4063 100.739 16.7505 101.031 17.0433C101.337 17.3362 101.753 17.4826 102.279 17.4826C103.023 17.4826 103.636 17.1751 104.118 16.5601C104.6 15.9451 104.841 15.2714 104.841 14.5393L104.841 14.2317L104.359 14.2317C101.848 14.2317 100.593 14.8248 100.593 16.011ZM108.697 19.3497L108.697 8.14727L111.368 8.14727L111.368 10.1242L111.324 10.893L111.368 10.893C111.631 10.0729 112.083 9.38466 112.726 8.8282C113.368 8.27174 114.098 7.99351 114.915 7.99351C115.032 7.99351 115.207 8.00815 115.441 8.03744L115.441 10.7831C115.295 10.7539 115.068 10.7392 114.762 10.7392C113.682 10.7392 112.864 11.1346 112.31 11.9254C111.755 12.7161 111.478 13.6826 111.478 14.8248L111.478 19.3497L108.697 19.3497ZM116.283 19.3497L116.283 3.75415L119.064 3.75415L119.064 12.1011L120.444 12.1011L123.137 8.14727L126.224 8.14727L122.699 13.1554L122.699 13.1994L126.662 19.3497L123.465 19.3497L120.509 14.4514L119.064 14.4514L119.064 19.3497L116.283 19.3497ZM126.099 13.7485C126.099 12.0205 126.625 10.6147 127.676 9.5311C128.741 8.43282 130.113 7.88368 131.792 7.88368C133.339 7.88368 134.551 8.38889 135.427 9.39931C136.303 10.3951 136.741 11.6618 136.741 13.1994C136.741 13.4483 136.711 13.8071 136.653 14.2757L128.968 14.2757C129.055 15.2129 129.413 15.9451 130.04 16.4722C130.668 16.9848 131.427 17.241 132.318 17.241C133.427 17.241 134.493 16.831 135.514 16.011L136.609 18.0098C136.054 18.5077 135.368 18.9031 134.551 19.196C133.748 19.4742 132.938 19.6133 132.121 19.6133C130.325 19.6133 128.873 19.0495 127.763 17.922C126.654 16.7797 126.099 15.3886 126.099 13.7485ZM129.033 12.3647L133.96 12.3647C133.945 11.6325 133.726 11.0541 133.303 10.6294C132.894 10.2047 132.369 9.99238 131.726 9.99238C131.026 9.99238 130.435 10.212 129.953 10.6513C129.471 11.076 129.165 11.6471 129.033 12.3647ZM138.504 15.2422L138.504 10.5196L137.059 10.5196L137.059 8.30103L138.57 8.30103L138.57 5.09405L141.285 5.09405L141.285 8.30103L143.825 8.30103L143.825 10.5196L141.285 10.5196L141.285 14.8907C141.285 15.6961 141.511 16.2526 141.963 16.5601C142.431 16.853 142.941 16.9994 143.496 16.9994C143.686 16.9994 143.854 16.9848 144 16.9555L144 19.3937C143.562 19.4376 143.277 19.4596 143.146 19.4596C142.766 19.4596 142.401 19.4303 142.051 19.3717C141.701 19.3278 141.3 19.2179 140.847 19.0422C140.395 18.8665 140 18.6395 139.665 18.3613C139.344 18.0684 139.066 17.6584 138.833 17.1312C138.614 16.5894 138.504 15.9597 138.504 15.2422Z" fill="url(#paint6_linear_1_21326)"/>
<defs>
<linearGradient id="paint0_linear_1_21326" x1="7.07377" y1="0.0355965" x2="10.7982" y2="9.88512" gradientUnits="userSpaceOnUse">
<stop stop-color="#FECC2E"/>
<stop offset="0.63" stop-color="#F49739"/>
<stop offset="1" stop-color="#F7A934"/>
</linearGradient>
<linearGradient id="paint1_linear_1_21326" x1="15.0376" y1="-0.331048" x2="18.7445" y2="10.4944" gradientUnits="userSpaceOnUse">
<stop stop-color="#36AC57"/>
<stop offset="0.25" stop-color="#21975A"/>
<stop offset="1" stop-color="#067C5F"/>
</linearGradient>
<linearGradient id="paint2_linear_1_21326" x1="2.71041" y1="11.391" x2="15.1792" y2="27.9085" gradientUnits="userSpaceOnUse">
<stop stop-color="#4EB76A"/>
<stop offset="0.300679" stop-color="#1A925A"/>
<stop offset="1" stop-color="#01795E"/>
</linearGradient>
<linearGradient id="paint3_linear_1_21326" x1="3.06682" y1="19.2222" x2="6.80391" y2="22.7709" gradientUnits="userSpaceOnUse">
<stop stop-color="#34AC55"/>
<stop offset="0.182292" stop-color="#18905A"/>
<stop offset="1" stop-color="#037B5E"/>
</linearGradient>
<linearGradient id="paint4_linear_1_21326" x1="11.5351" y1="19.2222" x2="15.2722" y2="22.7709" gradientUnits="userSpaceOnUse">
<stop stop-color="#34AC55"/>
<stop offset="0.182292" stop-color="#18905A"/>
<stop offset="1" stop-color="#037B5E"/>
</linearGradient>
<linearGradient id="paint5_linear_1_21326" x1="51.0697" y1="0.428765" x2="51.0697" y2="26.714" gradientUnits="userSpaceOnUse">
<stop stop-color="#35AD54"/>
<stop offset="0.309893" stop-color="#1B9359"/>
<stop offset="1" stop-color="#00785E"/>
</linearGradient>
<linearGradient id="paint6_linear_1_21326" x1="108.042" y1="-2.00572" x2="110.796" y2="26.6699" gradientUnits="userSpaceOnUse">
<stop stop-color="#FFCC2A"/>
<stop offset="0.631373" stop-color="#F89734"/>
<stop offset="1" stop-color="#FAA932"/>
</linearGradient>
</defs>
</svg>
