<svg width="24" height="24" viewBox="0 0 24 24" fill="none" xmlns="http://www.w3.org/2000/svg">
<path fill-rule="evenodd" clip-rule="evenodd" d="M18 12C18 12.6624 18.5376 13.2 19.2 13.2L22.8 13.2C23.4624 13.2 24 12.6624 24 12C24 11.3376 23.4624 10.8 22.8 10.8L19.2 10.8C18.5376 10.8 18 11.3376 18 12ZM1.2 13.2L4.8 13.2C5.4624 13.2 6 12.6624 6 12C6 11.3376 5.4624 10.8 4.8 10.8L1.2 10.8C0.537598 10.8 -1.10698e-06 11.3376 -1.04907e-06 12C-9.91162e-07 12.6624 0.537599 13.2 1.2 13.2ZM12.0002 6C12.6626 6 13.2002 5.4624 13.2002 4.8L13.2002 1.2C13.2002 0.536403 12.6626 2.8985e-06 12.0002 2.95641e-06C11.3378 3.01431e-06 10.8002 0.536403 10.8002 1.2L10.8002 4.8C10.8002 5.4624 11.3378 6 12.0002 6ZM12 24C12.6624 24 13.2 23.4624 13.2 22.8L13.2 19.2C13.2 18.5376 12.6624 18 12 18C11.3376 18 10.8 18.5376 10.8 19.2L10.8 22.8C10.8 23.4624 11.3376 24 12 24ZM16.3606 21.9528C16.6918 22.5264 17.425 22.7244 17.9998 22.392C18.5746 22.0608 18.7702 21.3264 18.439 20.7528L16.639 17.6352C16.3078 17.0616 15.5746 16.8648 14.9998 17.196C14.425 17.5272 14.2294 18.2616 14.5606 18.8352L16.3606 21.9528ZM7.36061 6.36485C7.69181 6.93845 8.42501 7.13525 8.99981 6.80405C9.57461 6.47285 9.77021 5.73845 9.43901 5.16485L7.63901 2.04725C7.30781 1.47365 6.57461 1.27565 5.99981 1.60805C5.42501 1.93925 5.22941 2.67365 5.56061 3.24725L7.36061 6.36485ZM17.1959 8.99994C17.5271 9.57474 18.2615 9.77034 18.8351 9.43914L21.9527 7.63914C22.5263 7.30794 22.7243 6.57474 22.3919 5.99994C22.0607 5.42514 21.3263 5.22954 20.7527 5.56074L17.6351 7.36074C17.0615 7.69194 16.8647 8.42514 17.1959 8.99994ZM6.80402 14.9999C6.47282 14.4251 5.73842 14.2295 5.16482 14.5607L2.04722 16.3607C1.47362 16.6919 1.27562 17.4251 1.60802 17.9999C1.93922 18.5747 2.67362 18.7703 3.24722 18.4391L6.36482 16.6391C6.93842 16.3079 7.13522 15.5747 6.80402 14.9999ZM21.9527 16.3607L18.8351 14.5607C18.2615 14.2295 17.5271 14.4251 17.1959 14.9999C16.8647 15.5747 17.0615 16.3079 17.6351 16.6391L20.7527 18.4391C21.3263 18.7703 22.0607 18.5747 22.3919 17.9999C22.7243 17.4251 22.5263 16.6919 21.9527 16.3607ZM2.04722 7.63914L5.16482 9.43913C5.73842 9.77033 6.47282 9.57473 6.80402 8.99993C7.13522 8.42513 6.93842 7.69194 6.36482 7.36074L3.24722 5.56074C2.67362 5.22954 1.93922 5.42514 1.60802 5.99994C1.27562 6.57474 1.47362 7.30794 2.04722 7.63914ZM14.9998 6.80405C15.5746 7.13525 16.3078 6.93845 16.639 6.36485L18.439 3.24725C18.7702 2.67365 18.5746 1.93925 17.9998 1.60805C17.425 1.27565 16.6918 1.47365 16.3606 2.04725L14.5606 5.16485C14.2294 5.73845 14.425 6.47285 14.9998 6.80405ZM8.99981 17.196C8.42501 16.8648 7.69181 17.0616 7.36061 17.6352L5.56061 20.7528C5.22941 21.3264 5.42501 22.0608 5.99981 22.392C6.57461 22.7244 7.30781 22.5264 7.63901 21.9528L9.43901 18.8352C9.77021 18.2616 9.57461 17.5272 8.99981 17.196Z" fill="url(#paint0_angular_399_4983)"/>
<defs>
<radialGradient id="paint0_angular_399_4983" cx="0" cy="0" r="1" gradientUnits="userSpaceOnUse" gradientTransform="translate(12 12) rotate(-90) scale(12)">
<stop stop-color="#27B1E7"/>
<stop offset="0.9375" stop-color="#27B1E7" stop-opacity="0"/>
</radialGradient>
</defs>
</svg>
