<svg width="51" height="49" viewBox="0 0 51 49" fill="none" xmlns="http://www.w3.org/2000/svg">
<path d="M7.88 48.0005L2.76 42.8805L43.752 1.92049L48.872 7.07249L7.88 48.0005ZM39.272 48.9605C37.16 48.9605 35.2293 48.4485 33.48 47.4245C31.752 46.3792 30.3653 44.9925 29.32 43.2645C28.2747 41.5152 27.752 39.5738 27.752 37.4405C27.752 35.3498 28.2853 33.4298 29.352 31.6805C30.4187 29.9312 31.8267 28.5338 33.576 27.4885C35.3253 26.4432 37.224 25.9205 39.272 25.9205C41.384 25.9205 43.3147 26.4432 45.064 27.4885C46.8133 28.5125 48.2 29.8992 49.224 31.6485C50.2693 33.3765 50.792 35.3072 50.792 37.4405C50.792 39.5738 50.2693 41.5152 49.224 43.2645C48.2 44.9925 46.8133 46.3792 45.064 47.4245C43.3147 48.4485 41.384 48.9605 39.272 48.9605ZM39.272 42.3685C40.1467 42.3685 40.9573 42.1445 41.704 41.6965C42.472 41.2485 43.08 40.6512 43.528 39.9045C43.976 39.1578 44.2 38.3365 44.2 37.4405C44.2 36.5445 43.976 35.7232 43.528 34.9765C43.08 34.2298 42.472 33.6325 41.704 33.1845C40.9573 32.7365 40.1467 32.5125 39.272 32.5125C38.376 32.5125 37.5547 32.7365 36.808 33.1845C36.0613 33.6325 35.4533 34.2298 34.984 34.9765C34.536 35.7232 34.312 36.5445 34.312 37.4405C34.312 38.3365 34.536 39.1578 34.984 39.9045C35.4533 40.6512 36.0613 41.2485 36.808 41.6965C37.5547 42.1445 38.376 42.3685 39.272 42.3685ZM12.36 24.0005C10.248 24.0005 8.31733 23.4885 6.568 22.4645C4.81867 21.4192 3.42133 20.0325 2.376 18.3045C1.352 16.5552 0.84 14.6138 0.84 12.4805C0.84 10.3898 1.37333 8.46982 2.44 6.72049C3.50667 4.97115 4.91467 3.57382 6.664 2.52848C8.41333 1.48315 10.312 0.960487 12.36 0.960487C14.472 0.960487 16.392 1.48315 18.12 2.52848C19.8693 3.55249 21.2667 4.93915 22.312 6.68849C23.3573 8.41649 23.88 10.3472 23.88 12.4805C23.88 14.6138 23.3573 16.5552 22.312 18.3045C21.2667 20.0325 19.8693 21.4192 18.12 22.4645C16.392 23.4885 14.472 24.0005 12.36 24.0005ZM12.36 17.4085C13.256 17.4085 14.0773 17.1845 14.824 16.7365C15.5707 16.2885 16.168 15.6912 16.616 14.9445C17.064 14.1978 17.288 13.3765 17.288 12.4805C17.288 11.5845 17.064 10.7632 16.616 10.0165C16.168 9.26982 15.5707 8.67249 14.824 8.22449C14.0773 7.77649 13.256 7.55249 12.36 7.55249C11.464 7.55249 10.6427 7.77649 9.896 8.22449C9.14933 8.67249 8.552 9.26982 8.104 10.0165C7.656 10.7632 7.432 11.5845 7.432 12.4805C7.432 13.3765 7.656 14.1978 8.104 14.9445C8.552 15.6912 9.14933 16.2885 9.896 16.7365C10.6427 17.1845 11.464 17.4085 12.36 17.4085Z" fill="white" fill-opacity="0.68"/>
</svg>
