<svg width="28" height="31" viewBox="0 0 28 31" fill="none" xmlns="http://www.w3.org/2000/svg">
<g clip-path="url(#clip0_1_10744)">
<path d="M22.9707 16.7955C22.9336 13.002 26.3561 11.1808 26.5109 11.092C24.5849 8.51324 21.5877 8.15996 20.5184 8.1184C17.9691 7.88225 15.5415 9.49185 14.2493 9.49185C12.9571 9.49185 10.9589 8.15241 8.84513 8.1902C6.06253 8.22798 3.50081 9.66944 2.06823 11.9478C-0.819644 16.5329 1.3313 23.3284 4.14279 27.0502C5.51964 28.8695 7.15864 30.9192 9.3137 30.8437C11.3903 30.7681 12.1747 29.6157 14.6807 29.6157C17.1867 29.6157 17.8927 30.8437 20.087 30.8078C22.3184 30.7681 23.7345 28.9488 25.101 27.1238C26.6781 25.0117 27.3304 22.9676 27.3675 22.8599C27.318 22.841 23.0161 21.3315 22.9707 16.7955Z" fill="#B3B3B3"/>
<path d="M18.8487 5.65684C19.9922 4.38918 20.7642 2.62652 20.5516 0.869629C18.9042 0.930149 16.9103 1.87471 15.7274 3.14237C14.6685 4.26272 13.7396 6.05741 13.9913 7.77854C15.8286 7.9089 17.7049 6.92264 18.8487 5.65684Z" fill="#B3B3B3"/>
</g>
<defs>
<clipPath id="clip0_1_10744">
<rect width="26.6827" height="30" fill="white" transform="translate(0.692383 0.857178)"/>
</clipPath>
</defs>
</svg>
