<svg width="81" height="18" viewBox="0 0 81 18" fill="none" xmlns="http://www.w3.org/2000/svg">
<g clip-path="url(#clip0_1_10749)">
<path d="M8.64863 0.00354004C3.87664 0.00354004 0 4.03667 0 9.00129C0 13.9659 3.87664 17.999 8.64863 17.999C13.4206 17.999 17.2973 13.9659 17.2973 9.00129C17.2973 4.03667 13.4206 0.00354004 8.64863 0.00354004ZM8.64863 17.0973C4.35289 17.0973 0.866768 13.4605 0.866768 9.00129C0.866768 4.54205 4.35289 0.905297 8.64863 0.905297C12.9444 0.905297 16.4305 4.54205 16.4305 9.00129C16.4305 13.4605 12.9444 17.0973 8.64863 17.0973Z" fill="black"/>
<path d="M11.7348 3.23265C11.7062 3.21284 11.6681 3.20293 11.63 3.20293C11.5157 3.20293 11.43 3.29211 11.43 3.41102V6.2253C11.43 6.32439 11.3538 6.40367 11.2586 6.40367H6.01985C5.9246 6.40367 5.85792 6.32439 5.8484 6.2253V3.41102C5.8484 3.37139 5.83887 3.34166 5.81982 3.30202C5.76267 3.20293 5.63885 3.1732 5.5436 3.23265C3.61004 4.47133 2.43848 6.62168 2.43848 8.99993C2.43848 11.3782 3.61004 13.5285 5.56265 14.7672C5.59123 14.787 5.62933 14.7969 5.66743 14.7969C5.78172 14.7969 5.86745 14.7078 5.86745 14.5888V11.7746C5.86745 11.6755 5.94365 11.6061 6.0389 11.5962H11.2776C11.3729 11.5962 11.4491 11.6755 11.4491 11.7746V14.5888C11.4491 14.6285 11.4586 14.6582 11.4776 14.6978C11.5348 14.7969 11.6586 14.8267 11.7539 14.7672C13.7065 13.5285 14.878 11.3782 14.878 8.99993C14.878 6.62168 13.6874 4.47133 11.7348 3.23265ZM4.85781 12.5277L4.88638 12.8646L4.67683 12.5971C3.06712 10.4863 3.06712 7.50361 4.67683 5.39291L4.85781 5.15508L4.88638 5.12535L4.85781 5.47218C4.82923 5.74965 4.81971 6.03702 4.81971 6.32439V11.6656C4.81971 11.9529 4.83876 12.2403 4.85781 12.5277ZM11.43 10.3476C11.43 10.4467 11.3538 10.526 11.2586 10.526H6.01985C5.9246 10.526 5.85792 10.4467 5.8484 10.3476V7.65225C5.8484 7.55316 5.9246 7.47388 6.01985 7.47388H11.2586C11.3538 7.47388 11.43 7.55316 11.43 7.65225V10.3476ZM12.6111 12.5971L12.4015 12.8646L12.4301 12.5277C12.4587 12.2502 12.4682 11.9628 12.4682 11.6755V6.32439C12.4682 6.03702 12.4587 5.74965 12.4301 5.47218L12.4206 5.32354L12.4111 5.16499V5.12535L12.6111 5.39291C13.3921 6.40367 13.8208 7.69189 13.8208 8.99002C13.8208 10.2882 13.3921 11.5863 12.6111 12.5971Z" fill="black"/>
<path d="M30.3465 8.84139C30.2988 8.82158 30.2417 8.80176 30.2417 8.7423C30.2417 8.70266 30.2607 8.67293 30.2988 8.65312C30.3655 8.62339 32.0133 8.009 32.0133 5.98748C32.0133 3.73805 30.556 2.40027 28.0986 2.40027H22.1455V15.6194H28.6415C30.537 15.6194 32.5753 14.2222 32.5753 11.9728C32.5753 9.82243 31.0132 9.06931 30.3465 8.84139ZM25.1459 5.10555C25.1459 5.056 25.184 5.01636 25.2316 5.01636H27.5938C28.3748 5.01636 28.9082 5.56138 28.9082 6.37395C28.9082 7.00815 28.432 7.6919 27.5366 7.6919H25.2316C25.184 7.6919 25.1459 7.65226 25.1459 7.60272V5.10555ZM27.5938 13.0133H25.2316C25.184 13.0133 25.1459 12.9736 25.1459 12.9241V10.2882C25.1459 10.2386 25.184 10.199 25.2316 10.199H27.5366C28.6701 10.199 29.3178 10.7044 29.3178 11.5962C29.3178 12.5178 28.7177 13.0133 27.5938 13.0133ZM52.6824 7.66217L52.2252 7.56308C51.1965 7.33516 50.1964 7.04779 50.1964 6.12621C50.1964 5.20464 51.0251 4.78844 51.8442 4.78844C52.8062 4.78844 53.7587 5.23437 54.4826 6.0073L56.3686 4.06506C55.5589 3.13357 54.1207 2.06335 51.7966 2.06335C48.9963 2.06335 47.1103 3.71823 47.1103 6.18567C47.1103 8.79185 49.082 9.77288 50.7393 10.1395L51.187 10.2386C52.7967 10.5954 53.5587 10.8629 53.5587 11.8142C53.5587 12.6664 52.8253 13.2313 51.7395 13.2313C50.4631 13.2313 49.3296 12.6466 48.4724 11.5467L46.5388 13.5186C47.5675 14.787 48.9296 15.9365 51.7776 15.9365C54.2064 15.9365 56.6734 14.4699 56.6734 11.6557C56.6638 8.77203 54.7779 8.11801 52.6824 7.66217ZM77.7806 2.40027V7.23607C77.7806 7.28562 77.7425 7.32525 77.6949 7.32525H73.7897C73.742 7.32525 73.7039 7.28562 73.7039 7.23607V2.40027H70.5036V15.6194H73.7039V10.4269C73.7039 10.3774 73.742 10.3377 73.7897 10.3377H77.6949C77.7425 10.3377 77.7806 10.3774 77.7806 10.4269V15.6194H81V2.40027H77.7806ZM64.0647 12.9142C62.6264 12.9142 61.0739 11.6656 61.0739 8.92067C61.0739 6.41359 62.5312 5.10555 63.9695 5.10555C65.0172 5.10555 65.7506 5.56138 66.3316 6.57214L68.7891 4.87763C67.5318 2.9552 66.0364 2.08317 63.9504 2.08317C59.8642 2.08317 58.0354 5.52174 58.0354 8.92067C58.0354 13.0529 60.4548 15.9365 63.9123 15.9365C66.484 15.9365 67.6556 14.9555 68.8843 13.1421L66.4078 11.4079C65.8554 12.3394 65.2553 12.9142 64.0647 12.9142ZM39.7666 2.06335C36.271 2.06335 33.9278 4.8479 33.9278 8.99995C33.9278 13.152 36.271 15.9365 39.7666 15.9365C43.2623 15.9365 45.6054 13.152 45.6054 8.99995C45.6054 4.8479 43.2623 2.06335 39.7666 2.06335ZM39.7666 12.9142C38.0521 12.9142 36.9472 11.3782 36.9472 8.99995C36.9472 6.6316 38.0521 5.10555 39.7666 5.10555C41.4906 5.10555 42.605 6.6316 42.605 8.99995C42.605 11.3782 41.4906 12.9142 39.7666 12.9142Z" fill="#F80000"/>
</g>
<defs>
<clipPath id="clip0_1_10749">
<rect width="81" height="18" fill="white"/>
</clipPath>
</defs>
</svg>
