<svg width="107" height="38" viewBox="0 0 107 38" fill="none" xmlns="http://www.w3.org/2000/svg">
<path fill-rule="evenodd" clip-rule="evenodd" d="M7.12305 29.7754H101.717V13.7559H7.12305V29.7754Z" fill="black"/>
<path fill-rule="evenodd" clip-rule="evenodd" d="M84.1247 26.6385H7.12305V27.6036H83.7884L84.1247 26.6385ZM35.626 17.4712L33.0784 21.3314C33.0784 21.3314 33.2709 19.3043 33.2709 18.8224C33.3187 18.4362 33.2709 17.4712 32.3574 17.4712H28.3677L25.7724 24.6126H28.8967L30.7716 19.4497L30.387 24.6126H33.1749L36.5873 19.5456L34.7124 24.6126H37.8367L40.4804 17.4712H35.626ZM52.6413 24.4677C52.4487 24.5162 51.2953 24.7569 49.9976 24.7569C47.7869 24.8539 45.8159 23.9373 45.8159 22.3449C45.7682 19.4982 48.6039 17.9537 50.7186 17.5676C51.6322 17.3742 53.4583 17.133 55.2366 17.5676L54.1798 20.0771C53.8907 19.4013 53.1219 19.4013 52.785 19.4013C52.0646 19.3528 51.3913 19.5941 50.9584 19.7874C49.901 20.2694 48.988 21.8133 50.4777 22.4402C51.2947 22.7778 52.3526 22.4886 53.4577 22.3443L52.6413 24.4677ZM84.6532 24.6126H81.2413L83.8356 17.4712H87.2973L84.6532 24.6126ZM43.2683 24.6126H39.8559L42.4513 17.4712H45.912L43.2683 24.6126ZM61.8704 17.4712L60.9574 20.0287H59.1785L60.1398 17.4712H56.8707L54.227 24.6126H57.4956L58.4087 22.1994H60.1398L59.2745 24.6126H62.5432L65.1863 17.4712H61.8704ZM77.6841 22.2479L79.4136 17.4712H76.05L73.4541 24.6126H80.1834L81.0482 22.2479H77.6841ZM95.8044 17.4712L93.9784 22.3922C94.0266 21.9103 94.1232 19.9317 94.1704 18.8224C94.2187 18.3398 94.1232 18.0016 93.8823 17.7604C93.5943 17.4712 93.2574 17.4712 93.2574 17.4712H89.2683L86.6246 24.6126H89.5569L91.3824 19.5456L91.1904 24.6126H96.0453L98.6879 17.4712H95.8044ZM68.4549 22.6825L68.7429 21.9103H72.4928L73.1178 20.1245H69.3679L69.6571 19.3528H73.5979L74.2706 17.4712H67.1089L64.4658 24.6126H71.7718L72.4445 22.6825H68.4549Z" fill="white"/>
<path fill-rule="evenodd" clip-rule="evenodd" d="M26.0612 20.7524C26.2538 20.4147 26.0134 19.7873 25.5805 19.3042C25.1959 18.8223 24.6669 18.6769 24.6192 18.4356C25.1481 17.3742 24.5709 16.4571 23.7539 16.0715C23.7782 15.8158 23.7382 15.5581 23.6374 15.322C23.5366 15.0859 23.3784 14.879 23.1772 14.7203C23.3698 14.2857 23.6101 13.0794 22.6965 12.3562C23.0812 10.8607 21.5426 9.99206 20.7256 9.94359C20.3415 9.65385 19.8125 9.46106 19.091 9.41259C19.62 8.64089 19.4756 7.62738 18.8507 7.04847C18.899 6.22829 18.3223 5.45604 17.5047 5.16631C17.2166 4.491 15.6781 4.5874 15.5338 5.21478C14.6207 5.55244 14.0923 6.51748 14.1883 7.43404C13.6594 8.01296 13.6594 8.978 14.1883 9.6533C13.7077 9.60538 13.0344 9.75025 12.602 9.94304H12.5538C12.1691 9.75025 11.7845 9.6533 11.3521 9.75025C11.2561 9.6533 10.9675 9.55691 10.7754 9.50899C10.6289 9.25808 10.4113 9.05658 10.1504 8.93007C10.0544 8.49547 9.71751 8.15782 9.3817 8.01296C9.42944 7.67531 9.28568 7.28918 9.1891 7.09584C8.99651 6.80666 9.0448 6.32414 9.09308 6.22719C9.33341 5.98593 9.14082 5.74467 9.04534 5.64828C8.56468 5.16576 8.08402 5.40702 7.93971 5.64828C7.45959 4.77963 6.93064 4.58685 6.64202 4.68324C6.2091 4.34559 5.58467 4.58685 5.58467 4.97242C5.29661 5.16576 5.10401 5.26215 5.53694 6.03386C5.44091 7.62628 5.63296 8.1088 6.69086 8.97745C6.35396 9.3151 6.2102 9.9904 6.49827 10.5214C6.40224 11.2931 6.83517 12.0654 7.36412 12.4515C7.50843 13.5614 8.56523 14.1882 9.28677 14.3331C9.76689 15.0569 10.4401 15.3945 11.1134 15.443C11.1611 15.7806 11.2577 16.0704 11.4498 16.3596C11.3055 16.9869 11.3055 17.5659 11.4975 18.0968C11.0168 18.6273 10.8248 19.4486 11.0646 20.2682C10.4879 20.944 10.2958 22.0528 10.6805 22.9705C10.6805 22.9705 10.5362 23.2118 10.4401 23.4525C10.0555 23.6464 9.67141 24.0799 9.47882 24.6582C9.28677 25.0928 9.3828 25.6717 9.47882 26.1548C8.85385 26.6853 8.46921 28.0364 9.57484 29.0984C9.33451 29.8696 8.80611 30.5454 8.18059 31.3661C7.74821 31.945 7.65219 32.2342 8.18059 32.9101C8.56523 33.4405 9.28623 33.8751 9.9112 33.8751C11.0646 33.9236 11.8816 33.6823 11.9782 32.8131C12.0742 32.3312 11.7378 31.3177 11.7378 31.077C11.6895 30.8351 11.7856 30.4496 12.0259 29.8227C13.0833 29.5809 13.6122 28.8092 13.7082 28.037C14.4775 27.6024 15.0542 26.6858 14.7656 25.6723C14.9099 25.528 14.9582 25.3831 15.0542 25.1419C15.0542 25.5765 15.3423 25.8656 15.4866 26.1554C15.0542 27.2647 15.6309 28.2782 16.3036 28.7128C15.1502 30.4016 16.3996 31.2218 16.7365 31.5595C17.1689 31.9456 17.2172 32.6699 17.8904 32.9106C18.4671 33.1034 20.2938 32.9106 20.6301 32.1384C20.7261 31.9456 20.8222 31.7049 20.7261 31.5595C20.7261 30.9806 20.3898 30.5944 19.7654 30.2083C19.0444 29.8233 19.0444 29.9191 18.7075 28.8571C19.8131 28.3267 20.0057 27.0725 19.9574 26.5894C20.7261 25.6244 20.6784 24.8047 20.246 24.2743C20.3903 23.8397 20.342 23.5021 20.246 23.1639C20.9187 22.5849 21.2074 21.7168 20.967 20.7992C21.3517 20.2203 21.4477 19.5934 21.3034 18.8696C21.6397 19.4006 22.1681 19.5929 22.7448 19.5929C22.7448 19.5929 22.7931 19.7383 22.8408 19.8341C22.6482 20.1718 22.7448 20.5579 23.1772 20.8476C23.2255 21.0415 23.3215 21.1368 23.4175 21.2338C23.4175 21.3792 23.8022 22.006 24.2345 21.6684C24.2823 21.6684 24.7635 21.3307 24.7635 21.3307C25.1959 21.6689 26.1572 21.3797 26.0612 20.7524Z" fill="#0C0E0F"/>
<path fill-rule="evenodd" clip-rule="evenodd" d="M21.5908 17.5675C22.7924 17.4711 23.9458 16.12 22.8402 15.058C22.6959 15.2992 22.3595 15.5405 22.1192 15.6369C22.0714 16.1679 21.7345 16.6019 21.5425 16.8432C21.5425 17.0371 21.5908 17.5196 21.5908 17.5675Z" fill="white"/>
<path fill-rule="evenodd" clip-rule="evenodd" d="M23.5618 16.5541C23.2732 17.3263 22.5039 17.7604 21.5909 17.9052C21.4466 18.5326 22.2641 19.4982 23.5135 18.9188C24.4266 18.5326 24.7635 17.0851 23.5618 16.5541ZM23.2255 19.9802C23.1294 20.0771 23.1294 20.3178 23.2732 20.4622C23.2732 20.4148 23.3692 20.1245 23.4175 20.0287C23.3692 19.9317 23.2732 19.9317 23.2255 19.9802ZM23.9942 20.5591C23.9459 20.4148 23.9942 20.2214 23.7539 20.173C23.5135 20.0771 23.5135 20.8488 23.6578 20.8004C23.7539 20.7045 23.8499 20.6076 23.9942 20.5591ZM24.3305 20.656C23.9942 20.753 23.7539 20.9937 23.8976 21.1865C23.9454 21.2834 23.9936 21.2834 24.1862 21.138C24.2823 21.0906 24.4743 20.9452 24.5226 20.8968C24.4749 20.7524 24.3305 20.656 24.3305 20.656ZM24.6192 19.16C24.5231 19.1121 24.3311 18.9672 24.2345 18.8224C23.9942 19.0636 23.4652 19.3528 23.2255 19.4013C23.2732 19.4013 23.3215 19.6425 23.3698 19.7389C23.4658 19.7389 23.5624 19.8348 23.6578 19.9317C23.7539 19.8832 24.0902 19.9317 24.1868 20.2694C24.3311 20.3663 24.6192 20.5106 24.7152 20.607C25.0998 21.0901 25.3879 21.0416 25.4845 20.9447C25.8208 20.7034 25.3402 20.4616 25.0998 20.124C24.9555 19.9796 24.5709 19.4492 24.5709 19.3043C24.5709 19.2559 24.6669 19.3043 24.7635 19.4013C24.7635 19.4497 25.2919 20.0771 25.5805 20.3178C25.3402 19.4982 24.6192 19.16 24.6192 19.16ZM17.0246 18.0501C21.5909 18.0016 22.1676 15.2993 21.5426 14.2384C20.1489 15.686 15.486 16.5061 13.1792 14.6725C12.7469 15.155 12.1696 15.2998 11.689 15.3962C11.8333 16.7469 14.2849 18.0986 17.0246 18.0501Z" fill="white"/>
<path fill-rule="evenodd" clip-rule="evenodd" d="M13.9476 12.3082C14.0437 13.2248 13.6596 14.045 13.467 14.3347C13.8999 14.6723 14.7647 15.2997 16.7356 15.3482C19.7162 15.3961 22.8882 13.9486 21.1099 11.4881C20.3411 12.501 16.5436 13.3697 13.9476 12.3082ZM10.0069 12.0185C10.7279 11.3426 10.7756 10.4746 10.4392 9.84717C10.3432 9.75078 10.2466 9.60591 10.1029 9.50952C9.95858 10.7637 8.18023 11.7293 7.02686 10.9092C7.45923 12.6938 9.23758 12.7423 10.0069 12.0185Z" fill="white"/>
<path fill-rule="evenodd" clip-rule="evenodd" d="M11.4494 13.2249C12.5067 12.0186 11.4494 10.1849 10.9687 10.0885C11.3051 11.8737 9.52673 13.2728 7.94043 12.5975C8.32452 13.7074 10.1994 14.624 11.4494 13.2249Z" fill="white"/>
<path fill-rule="evenodd" clip-rule="evenodd" d="M10.0073 14.3348C10.9204 15.2998 13.372 15.2519 13.5163 12.9836C13.6123 11.4397 12.9396 10.571 11.8817 10.2819C13.1316 12.646 11.6414 14.2863 10.0073 14.3348ZM11.93 16.7469C11.4971 19.3528 14.9583 20.1724 17.0247 20.1239C20.5336 19.9796 21.3029 18.2908 21.1103 17.2778C18.8991 19.0151 14.189 18.8224 11.93 16.7469Z" fill="white"/>
<path fill-rule="evenodd" clip-rule="evenodd" d="M13.7074 22.2479C15.5824 22.634 17.0721 21.7648 17.0721 20.5106C16.1585 20.5106 13.2268 20.4621 11.8331 18.5326C10.8718 19.8832 12.0257 21.7648 13.7074 22.2479Z" fill="white"/>
<path fill-rule="evenodd" clip-rule="evenodd" d="M16.2553 22.2964C14.573 23.1645 12.2657 22.5377 11.4004 20.7524C10.151 22.7299 12.2174 24.5157 13.7554 24.4187C15.6303 24.3234 16.1593 23.116 16.2553 22.2964Z" fill="white"/>
<path fill-rule="evenodd" clip-rule="evenodd" d="M11.0646 23.3583C10.4879 24.4192 11.2089 25.5775 11.9782 25.8673C13.6122 26.4947 14.7178 25.4327 14.6218 24.6604C13.3236 24.9502 11.9776 24.564 11.0646 23.3583ZM9.76633 26.59C8.9976 27.2185 9.526 28.9062 10.6799 29.2923C12.314 29.8712 13.035 28.7619 13.131 28.1829C12.6986 28.2788 10.8242 28.6655 9.76633 26.59Z" fill="white"/>
<path fill-rule="evenodd" clip-rule="evenodd" d="M11.8813 26.1565C11.016 25.7219 10.4871 25.0461 10.4393 24.1295C9.18992 25.3837 10.2467 27.3623 11.4006 27.7484C13.7079 28.568 14.525 26.5895 14.3329 26.0111C13.4193 26.6385 12.3137 26.3972 11.8813 26.1565ZM20.1486 31.8983L20.2446 31.9467C20.0521 32.3329 18.6583 32.6705 18.0817 32.4287C17.4084 32.0921 17.5527 31.706 17.1203 31.3193C16.159 30.4028 16.3033 30.0167 16.4476 29.5336C16.4954 29.2923 16.5919 29.1475 16.784 28.9062C17.4567 29.1475 17.7453 29.1001 18.322 28.9547C18.322 29.0032 18.322 29.1475 18.3703 29.1959C17.9373 29.2444 17.5527 29.3414 17.5527 29.3414L17.697 29.679C17.697 29.679 18.0334 29.5821 18.4657 29.5336C18.4657 29.5336 18.514 29.7754 18.5618 29.8712C18.1771 29.8712 17.8408 30.0167 17.8408 30.0167L17.9368 30.3058C17.9368 30.3058 18.4652 30.1615 18.8498 30.2089C19.2345 30.5466 20.7725 30.9327 20.0038 31.7539C19.7157 32.0431 18.9942 32.139 18.4175 32.139V32.2359C18.5146 32.3813 19.5719 32.4287 20.1486 31.8983ZM19.4276 26.9277C18.9581 27.2798 18.3783 27.4512 17.7936 27.4107C16.9766 27.4107 16.3993 27.0731 15.9187 26.5427C15.6301 27.9897 16.5436 28.6655 17.5527 28.7134C19.3793 28.8104 19.4276 27.1216 19.4276 26.9277Z" fill="white"/>
<path fill-rule="evenodd" clip-rule="evenodd" d="M17.7456 27.0731C19.7165 27.1215 20.2932 25.4807 19.9086 24.7569C18.8029 26.108 16.2553 25.8189 15.7264 24.1295C15.0542 25.3358 16.1593 27.0731 17.7456 27.0731Z" fill="white"/>
<path fill-rule="evenodd" clip-rule="evenodd" d="M18.0338 25.2873C18.9951 25.2873 20.0525 24.6125 19.8122 23.4057C18.7065 24.1294 17.3123 24.0815 16.3515 23.3583C16.2555 23.5026 16.1112 23.7433 16.0151 23.8402C16.1589 24.7568 17.0725 25.2873 18.0338 25.2873Z" fill="white"/>
<path fill-rule="evenodd" clip-rule="evenodd" d="M16.832 21.9102C16.7842 21.9587 16.7359 22.0071 16.6877 22.0071C16.6877 22.3448 16.5916 22.7783 16.4956 23.068C17.8416 24.2269 20.6773 23.5026 20.4852 21.1379C19.5239 22.103 17.9859 22.3448 16.832 21.9102Z" fill="white"/>
<path fill-rule="evenodd" clip-rule="evenodd" d="M17.457 20.5106C17.457 20.9452 17.3127 21.3313 17.0729 21.6695C18.803 22.2 20.9665 21.2834 20.87 19.2079C20.2933 19.7394 19.2354 20.4147 17.457 20.5106ZM8.75735 10.7159C10.055 10.137 9.95846 8.78579 9.18973 8.44814C8.99713 8.64093 9.04542 9.07553 9.04542 9.17137C9.04542 9.36471 8.70906 9.50902 8.66078 9.41263C8.56476 9.26776 8.85337 9.12345 8.70906 8.78524C8.61304 8.49606 8.9494 8.3512 8.9494 7.86813C8.9494 7.57895 8.70906 7.1449 8.70906 7.04795C8.56475 6.75822 8.56475 6.22778 8.75735 5.98652C8.61304 5.84165 8.42045 5.69679 8.27669 5.98652C8.03635 6.32417 8.13238 6.75822 8.27669 7.09643C8.27669 7.1449 8.03635 7.09642 7.94033 7.48255L7.84431 7.62742H7.74828C7.7 7.33823 7.79602 7.19337 7.89259 7.00058C7.84431 6.95211 7.74828 6.71085 7.74828 6.2768C7.55569 5.69789 7.12331 5.16689 6.83469 5.11897C7.07503 5.5051 7.50795 6.32528 7.55569 6.42167C7.65171 6.66293 7.45967 6.71085 7.45967 6.71085C7.12331 6.03499 6.78641 5.40815 6.49779 5.11842C6.30574 4.97356 6.1137 4.87716 6.01768 5.02203C6.1137 5.02203 6.20972 5.11842 6.30574 5.21537C6.59436 5.60094 7.21933 6.85571 7.21933 6.85571C7.21933 6.85571 7.1716 6.90364 7.07503 6.90364C6.979 6.90364 6.88243 6.71085 6.73867 6.37319C6.54608 6.08401 6.25801 5.60094 6.1137 5.45608C5.96939 5.26329 5.87337 5.31121 5.77734 5.40816C5.87337 5.55302 5.96994 5.74581 5.96994 5.89067C6.21027 5.79428 6.49834 6.03554 6.54663 6.2768C6.54663 6.47014 6.64265 7.09697 6.78696 7.29031C6.73867 7.29031 6.59436 7.38671 6.59436 7.38671C6.45005 7.24184 6.35403 6.56653 6.30574 6.32527C6.30574 6.22888 6.25801 6.13193 6.1137 6.08401C6.01768 6.08401 6.01768 6.13194 6.01768 6.18041C5.92165 7.53102 6.01768 7.86868 7.21933 8.7858C7.31536 8.83372 7.41193 9.02705 7.50795 9.22039C7.60398 9.36526 7.74828 9.60652 8.03635 9.55805L8.13238 9.65444C7.89205 9.8957 7.5074 9.75139 7.41138 9.65444C7.36364 9.55805 7.17105 9.26832 7.17105 9.26832C6.30574 10.1364 7.45967 11.3427 8.75735 10.7159ZM10.1033 29.3893C9.62265 30.4513 9.14199 30.9332 8.61359 31.7055C8.22895 32.1875 8.37326 32.4282 8.61359 32.7664C9.09425 33.2979 9.91127 33.5871 10.5362 33.3938V33.3464C9.76696 33.3938 9.14199 33.1046 8.80618 32.6226L8.85392 32.5741C9.71923 33.25 10.8726 33.0561 11.3055 32.8154C11.4498 32.7669 11.4976 32.6226 11.4976 32.4777C11.4498 32.0927 11.2572 31.4642 11.2095 31.1266C11.1612 30.8853 11.2572 30.3554 11.4976 29.7765C11.1124 29.8239 10.3437 29.7269 10.1033 29.3893ZM21.3029 11.0535C21.9279 11.4876 22.0233 12.3562 22.0233 12.6939C22.6483 11.4876 21.7353 10.7638 21.2546 10.6189C21.3506 10.8123 21.3506 11.0056 21.3029 11.0535ZM22.2159 15.0101C23.4176 14.3342 22.6483 12.8872 22.4563 12.7908C22.4085 12.9357 22.2642 13.3213 21.8313 13.8038C22.0716 14.0935 22.2159 14.5276 22.2159 15.0101ZM13.8526 11.8737C14.7179 12.2598 15.631 12.4041 16.544 12.4041C19.0433 12.4041 20.7739 11.6809 20.9183 10.9566C21.0143 10.3292 19.8609 9.94362 18.6592 9.84668C18.4667 10.04 18.2263 10.1359 18.1303 10.1359C18.0826 10.1359 17.986 10.0879 18.0826 10.0395C18.2752 9.94307 18.4672 9.75028 18.2752 9.41208C18.4195 9.41208 18.8518 9.21929 18.9001 8.44759C18.9001 7.8202 18.6115 7.43408 18.3234 7.24129C18.3234 7.24129 18.2274 7.1449 18.3234 7.1449C18.4195 6.37264 17.8911 5.74526 16.9775 5.55247V5.45608C17.0252 5.45608 17.0252 5.40816 17.0252 5.40816C16.9775 5.21537 16.3042 5.11897 16.0161 5.36023C15.9684 5.40816 16.1604 5.5051 16.2082 5.5051C16.3042 5.5051 16.3525 5.60149 16.2565 5.60149C15.6798 5.55357 14.7185 6.03609 14.7185 7.33878C14.7662 7.33878 15.0548 7.29086 15.1514 7.29086C15.2474 7.33879 15.1991 7.43573 15.1514 7.43573C14.2378 7.48365 13.9014 9.07663 15.1031 9.60707C15.1031 9.60707 15.1991 9.65499 15.1031 9.70347C14.9588 9.79986 14.8628 9.99264 15.0554 10.1375C15.1514 10.1375 15.1997 10.2339 15.1514 10.2824C15.1514 10.3788 15.0071 10.3788 14.9111 10.2824C14.2861 9.99265 13.5651 10.1375 12.9884 10.3303C13.4197 10.6674 13.7077 11.2463 13.8526 11.8737Z" fill="white"/>
<path fill-rule="evenodd" clip-rule="evenodd" d="M7.60386 7.82083C7.55558 7.86875 7.41127 7.72444 7.26751 7.62749C7.1232 7.57957 6.93115 7.57958 6.93115 7.5311C6.93115 7.5311 7.07546 7.48318 7.21922 7.48318C7.31524 7.48318 7.41182 7.5311 7.50784 7.5311C7.55558 7.6275 7.6516 7.77236 7.60386 7.82083ZM10.7759 31.1255C10.4873 31.0297 10.0549 30.9812 9.81459 30.9812V30.6436C10.1027 30.692 10.5356 30.7405 10.8719 30.8363L10.7759 31.1255ZM10.9685 30.4987C10.5356 30.3544 10.4396 30.3544 9.9589 30.3059V30.0167C10.4873 30.0167 10.6322 30.0167 11.0645 30.1621L10.9685 30.4987ZM17.7938 8.49614C17.7461 8.49614 17.6978 8.49614 17.6495 8.54406C16.7842 8.3992 16.5439 8.59253 16.0632 8.59253C16.0632 8.54406 16.0632 8.44767 15.9672 8.44767C15.9672 8.49559 15.9189 8.54406 15.9189 8.54406C15.7746 8.7374 15.7263 8.83324 15.7746 8.88171C15.8223 8.93019 15.9189 8.83324 15.9672 8.78532C16.0149 8.78532 16.2075 8.78532 16.3996 8.88171C16.5439 8.97811 16.832 9.36423 17.1206 9.21937C17.3609 9.12297 17.553 8.73685 17.6973 8.73685C17.7933 8.73685 17.8899 8.78477 17.8899 8.73685C17.9376 8.7374 17.8416 8.44822 17.7938 8.49614ZM17.1206 9.0756C16.832 9.172 16.6876 8.83434 16.4479 8.73795C16.6882 8.68948 17.1206 8.64156 17.5052 8.68948C17.4092 8.7374 17.1689 9.02713 17.1206 9.0756ZM17.4569 6.27688C17.1689 6.32536 16.9768 6.71148 16.9768 7.194C17.0246 7.48318 17.1211 7.77291 17.3132 7.91778C17.4092 7.96625 17.5058 8.01417 17.6018 8.01417C17.8904 7.96625 18.1302 7.57957 18.0825 7.09705C18.0825 6.80787 17.9381 6.51814 17.7944 6.42175C17.7518 6.37465 17.6997 6.33732 17.6414 6.31231C17.5832 6.28731 17.5203 6.27523 17.4569 6.27688Z" fill="#0C0E0F"/>
<path fill-rule="evenodd" clip-rule="evenodd" d="M17.8417 7.62742C17.89 7.53103 17.9377 7.33824 17.9377 7.09699C17.89 6.85573 17.8417 6.66294 17.6974 6.51807C17.6497 6.4696 17.5531 6.4696 17.5048 6.4696C17.2645 6.4696 17.1202 6.80725 17.1685 7.19338V7.28977C17.2167 7.04851 17.3128 6.85518 17.5048 6.80725C17.6974 6.80725 17.8412 7.04851 17.8412 7.33769L17.8417 7.62742Z" fill="white"/>
<path fill-rule="evenodd" clip-rule="evenodd" d="M16.1115 6.32523C15.8228 6.37316 15.5825 6.75928 15.5825 7.2418C15.5825 7.53098 15.6785 7.77278 15.8711 7.96557C15.9672 8.01349 16.0632 8.06196 16.2075 8.06196C16.4961 8.06196 16.7364 7.62737 16.7364 7.1454C16.7364 6.85567 16.6404 6.61441 16.4484 6.46955C16.4059 6.42256 16.3538 6.38534 16.2956 6.36043C16.2375 6.33552 16.1747 6.32352 16.1115 6.32523Z" fill="#0C0E0F"/>
<path fill-rule="evenodd" clip-rule="evenodd" d="M16.4958 7.57951C16.5436 7.43464 16.5919 7.29033 16.5919 7.14546C16.5436 6.9042 16.4958 6.71086 16.3515 6.56655C16.3032 6.51863 16.2072 6.47015 16.1112 6.51863C15.9186 6.51863 15.7266 6.85628 15.7266 7.24186C15.7266 7.38672 15.7748 7.53104 15.8709 7.62798V7.67646V7.62798C15.8226 7.58006 15.8226 7.53159 15.8226 7.43519C15.8226 7.14601 15.9669 6.9042 16.1589 6.9042C16.3515 6.9042 16.4953 7.14546 16.4953 7.43519L16.4958 7.57951Z" fill="white"/>
</svg>
