<svg width="93" height="18" viewBox="0 0 93 18" fill="none" xmlns="http://www.w3.org/2000/svg">
<path d="M58.0959 17.9014C57.0962 17.7287 55.9744 17.2832 55.2188 16.7597C54.5445 16.2863 53.7656 15.3785 53.4576 14.7102C53.0739 13.8636 52.8937 13.0004 52.8937 12.009C52.8937 8.57278 54.8991 6.27265 58.3284 5.76585C59.0201 5.6656 60.4209 5.6656 61.1417 5.77142C62.7924 6.0109 64.2746 6.76832 65.1756 7.84877C66.0474 8.88466 66.4427 10.0765 66.4427 11.647C66.4427 12.5381 66.3497 13.1619 66.1114 13.8859C65.4081 16.0134 63.5713 17.5115 61.1591 17.9125C60.5197 18.0183 58.7411 18.0128 58.0959 17.9014ZM60.5372 17.0214C61.1359 16.8989 61.8043 16.5647 62.2635 16.1637C63.4551 15.1111 64.077 13.1675 63.891 11.1012C63.7341 9.3859 63.2807 8.31102 62.3681 7.48676C61.5892 6.77946 60.2059 6.4453 58.9504 6.65694C57.2008 6.95211 56.0093 8.28317 55.5443 10.4775C55.1664 12.2708 55.6024 14.4595 56.5789 15.6959C57.1369 16.3977 58.0436 16.9156 58.9969 17.066C59.3398 17.1217 60.1594 17.0994 60.5372 17.0214ZM32.9569 17.79C32.3931 17.0938 24.7031 9.73119 24.459 9.64765C24.3311 9.60867 24.4648 16.0078 24.6217 17.4837L24.6566 17.829H23.0756V17.6507C23.0756 17.5505 23.1163 16.8655 23.1628 16.1303C23.2209 15.1613 23.25 13.5629 23.25 10.3271V5.85496H24.1102L24.6217 6.40075C25.4239 7.24171 26.9177 8.73986 28.0279 9.80916C29.8414 11.5468 32.0501 13.6186 32.3698 13.8692L32.6779 14.1198L32.643 12.3655C32.5442 7.97129 32.4861 6.02204 32.457 5.9385C32.4279 5.86609 32.5209 5.85496 33.2184 5.85496H34.0206L33.9799 6.65137C33.9624 7.08577 33.9276 9.8036 33.9043 12.6941L33.8694 17.9404H33.4742C33.1138 17.9404 33.0731 17.9292 32.9569 17.79ZM0 11.842V5.85496H2.62144C4.82438 5.85496 5.301 5.87166 5.65556 5.94407C7.38188 6.31721 8.35837 7.56473 8.23631 9.23553C8.14331 10.4831 7.44581 11.4967 6.31238 12.0313C5.46375 12.4323 5.03363 12.5047 3.62119 12.5103H2.38894L2.41219 12.7052C2.42381 12.811 2.45288 13.9137 2.47031 15.1557C2.48775 16.3977 2.52262 17.5059 2.54006 17.6229L2.57494 17.829H0V11.842ZM4.21406 11.5412C4.67325 11.3853 4.99294 11.1625 5.28937 10.7782C5.66719 10.2993 5.83575 9.77575 5.84156 9.05731C5.84156 8.02142 5.4405 7.29741 4.66162 6.92983C4.36519 6.7906 4.25475 6.77389 3.61538 6.75161C3.22012 6.74605 2.78419 6.75161 2.63888 6.77389L2.38313 6.80731V9.19654C2.38313 11.4243 2.38894 11.5858 2.48775 11.6081C2.54006 11.6248 2.883 11.6359 3.24338 11.6415C3.74906 11.647 3.96994 11.6248 4.21406 11.5412ZM8.42813 17.7733C8.42813 17.7399 8.49206 17.5951 8.56763 17.4503C8.64319 17.3055 8.90475 16.7597 9.14306 16.2417C9.38719 15.7182 9.77081 14.8939 9.9975 14.4038C10.8752 12.5493 10.9275 12.4267 11.8575 10.4218C12.7933 8.39456 13.8337 5.91065 13.8337 5.71015C13.8337 5.69345 14.1128 5.69345 14.4499 5.69902L15.066 5.71572L15.4438 6.69035C16.1355 8.48924 16.9783 10.4663 17.9083 12.4824C17.9955 12.6829 18.4314 13.6241 18.8674 14.5709C19.3033 15.5233 19.7741 16.5369 19.9078 16.8265C20.0415 17.1161 20.2101 17.4614 20.2798 17.5951L20.4019 17.829H17.577L17.1818 16.8154C16.9609 16.2529 16.6238 15.4007 16.4261 14.9218L16.0716 14.0418H13.8279C11.7354 14.0418 11.5785 14.0474 11.5494 14.1421C11.532 14.1922 11.3867 14.5486 11.2239 14.9274C10.881 15.7349 10.3288 17.1829 10.2184 17.5672L10.1486 17.829H9.28837C8.73619 17.829 8.42813 17.8067 8.42813 17.7733ZM15.3508 12.9391L15.5077 12.9001L15.1881 12.0926C15.0137 11.647 14.7696 11.0344 14.6417 10.7281C14.5196 10.4218 14.2871 9.84815 14.136 9.4583C13.8628 8.7677 13.8512 8.751 13.7814 8.90137C13.7408 8.98491 13.5373 9.44716 13.3281 9.92055C13.1246 10.3939 12.8689 10.9843 12.7584 11.2293C12.2934 12.2875 12.0435 12.9001 12.0668 12.928C12.1539 13.0115 15.0253 13.0171 15.3508 12.9391ZM38.4381 15.2559C38.4613 13.8358 38.4729 11.1402 38.4613 9.26894L38.4323 5.85496H41.3617C43.6228 5.85496 44.4366 5.87166 44.9481 5.9385C46.6744 6.1557 47.8892 6.74605 48.8424 7.83206C49.6911 8.80112 50.1038 10.0152 50.1038 11.5301C50.0979 14.2089 48.9412 16.1526 46.7383 17.1885C46.2733 17.4113 45.8432 17.5561 45.1341 17.7231C44.9248 17.7733 43.9193 17.7955 41.6175 17.8123L38.3916 17.8345L38.4381 15.2559ZM44.3029 16.7262C44.8958 16.5536 45.477 16.2306 45.9594 15.8017C47.0696 14.8104 47.5637 13.496 47.5637 11.5635C47.5521 8.52822 45.7676 6.80174 42.6405 6.80174C42.3441 6.80174 41.8267 6.81845 41.4896 6.83515L40.8793 6.87414L40.8386 7.38095C40.7572 8.42798 40.7979 16.6873 40.8851 16.7764C40.8909 16.7819 41.2571 16.8042 41.7047 16.8265C42.9427 16.8933 43.8437 16.8543 44.3029 16.7262ZM69.7267 16.5369C69.7849 14.8939 69.7849 6.15013 69.7267 5.98305L69.6861 5.85496H72.4993C75.6497 5.85496 75.9112 5.87723 76.6436 6.21139C77.1319 6.43416 77.6666 6.90756 77.8991 7.33639C78.213 7.89889 78.306 8.6953 78.1491 9.42488C77.9108 10.5109 77.0854 11.3073 75.7485 11.7417C75.4521 11.8364 75.1963 11.9255 75.1789 11.9422C75.1556 11.9645 75.609 12.605 76.8006 14.2256C77.3004 14.9051 78.5966 16.5703 79.1546 17.2442L79.6138 17.8011L78.0967 17.8178C77.2656 17.8234 76.5506 17.8178 76.5158 17.8067C76.4809 17.7955 76.3007 17.5449 76.1089 17.2498C75.3823 16.1136 73.7141 13.7522 72.6039 12.2764C72.54 12.1873 72.447 12.1538 72.3017 12.1483C72.1099 12.1483 72.0983 12.1594 72.1099 12.3042C72.1215 12.3878 72.1389 13.6631 72.1564 15.1446L72.1796 17.829H69.6803L69.7267 16.5369ZM73.9699 11.2906C74.7197 11.1402 75.2428 10.7337 75.5799 10.0431C75.7427 9.70892 75.7659 9.60867 75.7834 9.05174C75.8183 8.11053 75.609 7.58144 75.0568 7.19159C74.5337 6.81845 73.8885 6.70149 72.7551 6.77389L72.075 6.81288V11.3073L72.4412 11.3296C73.2317 11.3686 73.6328 11.363 73.9699 11.2906ZM81.1076 17.6507C81.1541 17.5505 81.3924 17.0437 81.6366 16.5202C81.8807 16.0022 82.1597 15.4119 82.2469 15.2114C82.3341 15.0109 82.4968 14.66 82.6131 14.4317C82.7991 14.0363 83.0141 13.5907 83.5256 12.4824C83.6477 12.2207 83.8163 11.8587 83.9034 11.6749C84.0429 11.3797 84.2115 11.0121 84.8625 9.58639C85.3682 8.4781 85.9611 7.09134 86.2459 6.32835L86.4784 5.71572L87.0887 5.69902L87.699 5.68231L87.7978 5.97748C87.9082 6.29493 88.1872 7.01894 88.6464 8.13837C88.908 8.78998 89.0707 9.17426 89.5997 10.3939C89.931 11.1625 90.6111 12.6774 90.8494 13.1786C90.9075 13.3011 91.0935 13.7132 91.2737 14.0975C91.884 15.423 92.2386 16.1916 92.6164 16.988C92.8256 17.428 93 17.7955 93 17.8067C93 17.8178 92.3722 17.829 91.6108 17.829H90.2216L89.9891 17.2609C89.8612 16.9434 89.6462 16.4144 89.5125 16.0746C89.3788 15.7405 89.1347 15.1446 88.9719 14.7491L88.6813 14.0418L86.4435 14.053L84.2115 14.0697L83.7872 15.0777C83.5547 15.6347 83.2292 16.4756 83.0548 16.9602L82.7467 17.829H81.0263L81.1076 17.6507ZM87.9315 12.9503C88.0303 12.9335 88.1175 12.9168 88.1175 12.9057C88.1175 12.8667 86.7167 9.3302 86.5423 8.92921L86.4609 8.73986L86.2343 9.26337C86.1122 9.54741 85.9262 9.98181 85.8158 10.2269C85.7111 10.4719 85.4147 11.1681 85.1531 11.7751C84.8857 12.3822 84.6939 12.8946 84.7172 12.9168C84.8044 13.0004 87.4316 13.0282 87.9315 12.9503ZM58.1889 4.99171C58.0669 4.613 58.0727 4.58515 58.2354 4.55174C58.5668 4.47934 60.264 4.45149 60.7639 4.51275C61.0487 4.54617 61.287 4.57959 61.2986 4.59072C61.3102 4.60186 61.2754 4.72996 61.2289 4.8859L61.1359 5.15879H58.2412L58.1889 4.99171ZM58.0088 4.06164C57.753 3.79431 57.9564 3.34877 58.3342 3.34877C58.6888 3.34877 58.8864 3.77204 58.6714 4.06164C58.5493 4.23429 58.1773 4.23429 58.0088 4.06164ZM60.6883 4.03936C60.5256 3.84444 60.5372 3.67736 60.7116 3.49357C60.8976 3.30421 61.1591 3.29864 61.3509 3.488C61.6357 3.7609 61.4439 4.18416 61.0312 4.18416C60.8569 4.18416 60.7813 4.15075 60.6883 4.03936ZM59.4909 4.06164C59.1945 3.91127 59.1422 3.59382 59.3747 3.37661C59.5491 3.20397 59.7583 3.1984 59.9618 3.36548C60.171 3.54369 60.171 3.82773 59.9559 4.00595C59.7874 4.13961 59.6653 4.15632 59.4909 4.06164ZM57.4042 2.50223C56.7881 0.586392 56.6719 0.213249 56.6835 0.20211C56.7126 0.174263 58.59 2.88095 58.59 2.94221C58.59 2.97562 58.4098 3.01461 58.1889 3.03689C57.9681 3.0536 57.7472 3.08701 57.6949 3.10372C57.6251 3.126 57.567 3.00347 57.4042 2.50223ZM61.4672 3.06473C61.3393 3.04246 61.1359 3.02018 61.0196 3.02018C60.9034 3.01461 60.7929 2.9979 60.7755 2.97006C60.7639 2.94778 60.9034 2.70273 61.0952 2.42983C61.287 2.15137 61.7055 1.54431 62.031 1.07649C62.3507 0.608669 62.6239 0.235526 62.6355 0.246664C62.6587 0.268942 62.5541 0.625377 62.1066 2.03998C61.9961 2.37971 61.8799 2.75842 61.845 2.89209C61.8101 3.02018 61.7636 3.12043 61.7404 3.12043C61.7171 3.11486 61.5951 3.09258 61.4672 3.06473ZM59.1712 2.86424C59.1829 2.60248 59.6828 -0.0652168 59.7118 0.00718417C59.7409 0.0795852 60.2175 2.83082 60.2175 2.9255C60.2175 2.94221 59.985 2.95892 59.6944 2.95892C59.2352 2.95892 59.1712 2.94778 59.1712 2.86424Z" fill="black"/>
</svg>
