<svg width="79" height="13" viewBox="0 0 79 13" fill="none" xmlns="http://www.w3.org/2000/svg">
<path d="M8.05077 4.80278C8.05077 6.42162 7.17916 7.51805 4.97182 7.51805H4.27434V2.36238C4.5223 2.34979 4.75387 2.34979 4.97182 2.34979C7.0619 2.34961 8.05077 3.23697 8.05077 4.80278ZM5.78499 9.76286C9.73456 9.76286 12.2317 7.93513 12.2317 4.75118C12.2315 1.25265 9.56004 0 5.20418 0C3.51961 0 1.48678 0.104092 0.0351562 0.260674V12.7393H4.27454V9.76286H5.78499ZM62.586 4.80278C62.586 6.42162 61.7156 7.51805 59.5077 7.51805H58.8126V2.36238C59.0584 2.34979 59.2903 2.34979 59.5077 2.34979C61.598 2.34961 62.586 3.23697 62.586 4.80278ZM60.3228 9.76286C64.2692 9.76286 66.7678 7.93513 66.7678 4.75118C66.7678 1.25265 64.0967 0 59.7404 0C58.0563 0 56.0223 0.104092 54.5704 0.260674V12.7393H58.812V9.76286H60.3228ZM72.2845 3.44533C72.2845 2.76687 73.0404 2.45317 74.2589 2.45317C75.5952 2.45317 77.0482 2.71438 78.0347 3.08127L77.6866 0.365475C76.5825 0.156582 75.5952 0 73.7953 0C70.3683 0 68.0459 1.21435 68.0459 3.75956C68.0459 8.14402 74.6679 7.2572 74.6679 9.29329C74.6679 10.0757 74.0281 10.4931 72.4592 10.4931C71.0674 10.4931 68.9169 10.0757 67.6394 9.50165L68.1053 12.374C69.3818 12.7916 71.1242 12.9998 72.5186 12.9998C76.0603 12.9998 78.9649 11.9554 78.9649 8.8223C78.9649 4.64709 72.2845 5.42946 72.2845 3.44533ZM51.3774 0.260674H47.138V12.7393H51.3774V0.260674ZM34.1855 0.260674H29.9457V12.7393H34.1855V0.260674ZM41.5615 10.2324V0.260674H37.3217V12.7393H44.9889L45.6271 10.2324H41.5615ZM26.8097 0.260674H22.57V5.22057H18.1559V0.260674H13.9153V12.7393H18.1557V7.83103H22.5698V12.7393H26.8095L26.8097 0.260674Z" fill="#1978BE"/>
</svg>
